<?xml version="1.0" encoding="UTF-8"?>
<!DOCTYPE svg PUBLIC "-//W3C//DTD SVG 1.1//EN" "http://www.w3.org/Graphics/SVG/1.1/DTD/svg11.dtd">
<svg xmlns="http://www.w3.org/2000/svg" version="1.1" width="179px" height="148px" style="shape-rendering:geometricPrecision; text-rendering:geometricPrecision; image-rendering:optimizeQuality; fill-rule:evenodd; clip-rule:evenodd" xmlns:xlink="http://www.w3.org/1999/xlink">
<g><path style="opacity:0.811" fill="#010101" d="M 128.5,-0.5 C 128.833,-0.5 129.167,-0.5 129.5,-0.5C 130.295,2.55042 131.295,5.55042 132.5,8.5C 135.5,9.83333 138.5,11.1667 141.5,12.5C 138.367,13.9327 135.2,15.266 132,16.5C 129.449,28.1963 127.282,27.863 125.5,15.5C 113.006,14.067 112.673,11.9003 124.5,9C 125.739,5.78057 127.072,2.61391 128.5,-0.5 Z"/></g>
<g><path style="opacity:0.961" fill="#40d9bd" d="M 61.5,21.5 C 61.5,30.1667 61.5,38.8333 61.5,47.5C 52.1877,40.1877 43.8544,31.8544 36.5,22.5C 44.8068,21.5021 53.1401,21.1688 61.5,21.5 Z"/></g>
<g><path style="opacity:1" fill="#cb44ff" d="M 62.5,21.5 C 70.8333,21.5 79.1667,21.5 87.5,21.5C 87.5,30.1667 87.5,38.8333 87.5,47.5C 79.1667,47.5 70.8333,47.5 62.5,47.5C 62.5,38.8333 62.5,30.1667 62.5,21.5 Z"/></g>
<g><path style="opacity:1" fill="#8627fd" d="M 87.5,21.5 C 96.5,21.5 105.5,21.5 114.5,21.5C 114.5,30.5 114.5,39.5 114.5,48.5C 105.833,48.5 97.1667,48.5 88.5,48.5C 88.1667,48.5 87.8333,48.5 87.5,48.5C 87.5,48.1667 87.5,47.8333 87.5,47.5C 87.5,38.8333 87.5,30.1667 87.5,21.5 Z"/></g>
<g><path style="opacity:1" fill="#8f9fc5" d="M 61.5,21.5 C 61.8333,21.5 62.1667,21.5 62.5,21.5C 62.5,30.1667 62.5,38.8333 62.5,47.5C 70.8333,47.5 79.1667,47.5 87.5,47.5C 87.5,47.8333 87.5,48.1667 87.5,48.5C 86.5,48.5 85.5,48.5 84.5,48.5C 80.8333,48.5 77.1667,48.5 73.5,48.5C 69.5,48.5 65.5,48.5 61.5,48.5C 61.5,48.1667 61.5,47.8333 61.5,47.5C 61.5,38.8333 61.5,30.1667 61.5,21.5 Z"/></g>
<g><path style="opacity:1" fill="#cc44ff" d="M 88.5,48.5 C 97.1667,48.5 105.833,48.5 114.5,48.5C 114.5,56.8333 114.5,65.1667 114.5,73.5C 114.167,73.5 113.833,73.5 113.5,73.5C 105.167,73.5 96.8333,73.5 88.5,73.5C 88.5,65.1667 88.5,56.8333 88.5,48.5 Z"/></g>
<g><path style="opacity:0.625" fill="#53e0a5" d="M 61.5,48.5 C 65.5,48.5 69.5,48.5 73.5,48.5C 70.7657,51.6247 68.2657,54.958 66,58.5C 64.871,60.1412 63.371,61.1412 61.5,61.5C 61.5,57.1667 61.5,52.8333 61.5,48.5 Z"/></g>
<g><path style="opacity:0.998" fill="#8ff355" d="M 84.5,48.5 C 85.5,48.5 86.5,48.5 87.5,48.5C 87.5,50.5 87.5,52.5 87.5,54.5C 85.525,57.3055 83.025,59.6388 80,61.5C 76.9178,65.7336 74.0845,70.0669 71.5,74.5C 69.5,74.5 67.5,74.5 65.5,74.5C 71.4221,65.5711 77.7555,56.9045 84.5,48.5 Z"/></g>
<g><path style="opacity:0.999" fill="#a8fb35" d="M 87.5,54.5 C 87.5,61.1667 87.5,67.8333 87.5,74.5C 82.1667,74.5 76.8333,74.5 71.5,74.5C 74.0845,70.0669 76.9178,65.7336 80,61.5C 83.025,59.6388 85.525,57.3055 87.5,54.5 Z"/></g>
<g><path style="opacity:1" fill="#75eb78" d="M 73.5,48.5 C 77.1667,48.5 80.8333,48.5 84.5,48.5C 77.7555,56.9045 71.4221,65.5711 65.5,74.5C 64.1667,74.5 62.8333,74.5 61.5,74.5C 61.5,70.1667 61.5,65.8333 61.5,61.5C 63.371,61.1412 64.871,60.1412 66,58.5C 68.2657,54.958 70.7657,51.6247 73.5,48.5 Z"/></g>
<g><path style="opacity:1" fill="#8caabf" d="M 87.5,48.5 C 87.8333,48.5 88.1667,48.5 88.5,48.5C 88.5,56.8333 88.5,65.1667 88.5,73.5C 96.8333,73.5 105.167,73.5 113.5,73.5C 105.35,74.4927 97.0168,74.8261 88.5,74.5C 88.1667,74.5 87.8333,74.5 87.5,74.5C 87.5,67.8333 87.5,61.1667 87.5,54.5C 87.5,52.5 87.5,50.5 87.5,48.5 Z"/></g>
<g><path style="opacity:0.94" fill="#41dabe" d="M 113.5,73.5 C 113.833,73.5 114.167,73.5 114.5,73.5C 114.831,82.1922 114.498,90.8589 113.5,99.5C 104.812,91.479 96.479,83.1457 88.5,74.5C 97.0168,74.8261 105.35,74.4927 113.5,73.5 Z"/></g>
<g><path style="opacity:0.846" fill="#000000" d="M 37.5,107.5 C 40.5,107.5 43.5,107.5 46.5,107.5C 46.5,110.167 46.5,112.833 46.5,115.5C 43.5,115.5 40.5,115.5 37.5,115.5C 37.5,112.833 37.5,110.167 37.5,107.5 Z"/></g>
<g><path style="opacity:0.832" fill="#000000" d="M 132.5,107.5 C 135.5,107.5 138.5,107.5 141.5,107.5C 141.5,110.167 141.5,112.833 141.5,115.5C 138.5,115.5 135.5,115.5 132.5,115.5C 132.5,112.833 132.5,110.167 132.5,107.5 Z"/></g>
<g><path style="opacity:0.89" fill="#000000" d="M -0.5,108.5 C 8.55858,108.154 17.5586,108.654 26.5,110C 33.8075,115.44 35.3075,122.274 31,130.5C 29.5134,131.155 28.3467,132.155 27.5,133.5C 29.8466,138.193 32.1799,142.86 34.5,147.5C 30.8333,147.5 27.1667,147.5 23.5,147.5C 22.3214,143.467 20.6547,139.634 18.5,136C 15.1832,135.502 11.8499,135.335 8.5,135.5C 8.5,139.5 8.5,143.5 8.5,147.5C 5.5,147.5 2.5,147.5 -0.5,147.5C -0.5,134.5 -0.5,121.5 -0.5,108.5 Z M 8.5,117.5 C 13.1785,117.334 17.8452,117.501 22.5,118C 25.1667,120.667 25.1667,123.333 22.5,126C 17.8452,126.499 13.1785,126.666 8.5,126.5C 8.5,123.5 8.5,120.5 8.5,117.5 Z"/></g>
<g><path style="opacity:0.898" fill="#000000" d="M 46.5,147.5 C 43.5,147.5 40.5,147.5 37.5,147.5C 37.5,137.167 37.5,126.833 37.5,116.5C 40.5,116.5 43.5,116.5 46.5,116.5C 46.5,126.833 46.5,137.167 46.5,147.5 Z"/></g>
<g><path style="opacity:0.884" fill="#000000" d="M 75.5,147.5 C 69.5,147.5 63.5,147.5 57.5,147.5C 52.0915,145.757 48.7582,142.09 47.5,136.5C 51.1817,136.335 54.8484,136.501 58.5,137C 59.1667,138.333 60.1667,139.333 61.5,140C 64.7603,140.784 67.9269,140.617 71,139.5C 71.6172,138.551 71.4506,137.718 70.5,137C 63.9635,136.276 57.7969,134.443 52,131.5C 48.7747,124.684 50.608,119.851 57.5,117C 63.2531,116.149 68.9198,116.483 74.5,118C 78.655,119.811 80.655,122.977 80.5,127.5C 77.4816,127.665 74.4816,127.498 71.5,127C 67.8378,122.869 63.8378,122.536 59.5,126C 65.0084,127.981 70.6751,129.648 76.5,131C 80.8608,133.226 82.3608,136.726 81,141.5C 79.9791,144.35 78.1458,146.35 75.5,147.5 Z"/></g>
<g><path style="opacity:0.895" fill="#000000" d="M 107.5,147.5 C 102.833,147.5 98.1667,147.5 93.5,147.5C 84.4758,143.437 81.3091,136.437 84,126.5C 86.7017,119.158 92.0351,115.824 100,116.5C 111.952,116.618 117.452,122.618 116.5,134.5C 108.472,134.169 100.472,134.502 92.5,135.5C 94.1057,138.871 96.7723,140.204 100.5,139.5C 103.321,139.832 105.654,138.999 107.5,137C 110.482,136.502 113.482,136.335 116.5,136.5C 115.995,142.328 112.995,145.995 107.5,147.5 Z M 96.5,124.5 C 100.911,123.66 104.577,124.827 107.5,128C 102.5,128.667 97.5,128.667 92.5,128C 93.7305,126.595 95.0639,125.429 96.5,124.5 Z"/></g>
<g><path style="opacity:0.885" fill="#000000" d="M 141.5,147.5 C 138.5,147.5 135.5,147.5 132.5,147.5C 132.5,137.167 132.5,126.833 132.5,116.5C 135.5,116.5 138.5,116.5 141.5,116.5C 141.5,126.833 141.5,137.167 141.5,147.5 Z"/></g>
<g><path style="opacity:0.868" fill="#000000" d="M 178.5,124.5 C 178.5,132.167 178.5,139.833 178.5,147.5C 175.5,147.5 172.5,147.5 169.5,147.5C 169.666,140.825 169.5,134.158 169,127.5C 164.739,123.577 160.406,123.577 156,127.5C 155.5,134.158 155.334,140.825 155.5,147.5C 152.167,147.5 148.833,147.5 145.5,147.5C 145.5,137.167 145.5,126.833 145.5,116.5C 148.833,116.5 152.167,116.5 155.5,116.5C 155.351,117.552 155.517,118.552 156,119.5C 162.011,115.719 168.178,115.552 174.5,119C 175.977,120.812 177.31,122.645 178.5,124.5 Z"/></g>
</svg>
