<?xml version="1.0" encoding="UTF-8"?>
<!DOCTYPE svg PUBLIC "-//W3C//DTD SVG 1.1//EN" "http://www.w3.org/Graphics/SVG/1.1/DTD/svg11.dtd">
<svg xmlns="http://www.w3.org/2000/svg" version="1.1" width="1663px" height="871px" style="shape-rendering:geometricPrecision; text-rendering:geometricPrecision; image-rendering:optimizeQuality; fill-rule:evenodd; clip-rule:evenodd" xmlns:xlink="http://www.w3.org/1999/xlink">
<g><path style="opacity:1" fill="#549dd7" d="M 115.5,304.5 C 115.5,316.833 115.5,329.167 115.5,341.5C 99.5,341.5 83.5,341.5 67.5,341.5C 82.9911,340.504 98.6578,340.17 114.5,340.5C 114.5,328.833 114.5,317.167 114.5,305.5C 86.8333,305.5 59.1667,305.5 31.5,305.5C 31.5,333.167 31.5,360.833 31.5,388.5C 31.5,388.833 31.5,389.167 31.5,389.5C 30.502,361.338 30.1687,333.005 30.5,304.5C 58.8333,304.5 87.1667,304.5 115.5,304.5 Z"/></g>
<g><path style="opacity:1" fill="#4c99d8" d="M 200.5,304.5 C 228.5,304.5 256.5,304.5 284.5,304.5C 284.5,304.833 284.5,305.167 284.5,305.5C 284.167,305.5 283.833,305.5 283.5,305.5C 256.167,305.5 228.833,305.5 201.5,305.5C 200.855,317.548 201.522,329.215 203.5,340.5C 218.676,340.171 233.676,340.504 248.5,341.5C 232.5,341.5 216.5,341.5 200.5,341.5C 200.5,329.167 200.5,316.833 200.5,304.5 Z"/></g>
<g><path style="opacity:1" fill="#1083eb" d="M 283.5,305.5 C 283.5,333.167 283.5,360.833 283.5,388.5C 279.5,388.5 275.5,388.5 271.5,388.5C 274.962,387.518 278.629,387.185 282.5,387.5C 282.5,360.5 282.5,333.5 282.5,306.5C 255.825,306.167 229.158,306.5 202.5,307.5C 207.614,308.171 208.28,309.838 204.5,312.5C 203.914,312.291 203.414,311.957 203,311.5C 202.323,321.434 202.489,331.101 203.5,340.5C 201.522,329.215 200.855,317.548 201.5,305.5C 228.833,305.5 256.167,305.5 283.5,305.5 Z"/></g>
<g><path style="opacity:1" fill="#0186fd" d="M 271.5,388.5 C 265.31,388.177 259.31,388.51 253.5,389.5C 252.5,389.5 251.5,389.5 250.5,389.5C 249.847,373.402 249.181,357.402 248.5,341.5C 233.676,340.504 218.676,340.171 203.5,340.5C 202.489,331.101 202.323,321.434 203,311.5C 203.414,311.957 203.914,312.291 204.5,312.5C 208.28,309.838 207.614,308.171 202.5,307.5C 229.158,306.5 255.825,306.167 282.5,306.5C 282.5,333.5 282.5,360.5 282.5,387.5C 278.629,387.185 274.962,387.518 271.5,388.5 Z"/></g>
<g><path style="opacity:1" fill="#94e9fc" d="M 115.5,304.5 C 143.833,304.5 172.167,304.5 200.5,304.5C 200.5,316.833 200.5,329.167 200.5,341.5C 183.154,341.167 165.821,341.5 148.5,342.5C 149.852,343.524 151.185,344.524 152.5,345.5C 161.004,355.941 170.671,365.274 181.5,373.5C 184.821,378.654 188.988,382.988 194,386.5C 194.483,387.448 194.649,388.448 194.5,389.5C 184.161,389.666 173.828,389.5 163.5,389C 156.704,383.206 150.204,377.039 144,370.5C 143.517,369.552 143.351,368.552 143.5,367.5C 142.448,367.649 141.448,367.483 140.5,367C 136.333,362.833 132.167,358.667 128,354.5C 127.517,353.552 127.351,352.552 127.5,351.5C 122.608,349.278 118.608,345.945 115.5,341.5C 115.5,329.167 115.5,316.833 115.5,304.5 Z"/></g>
<g><path style="opacity:1" fill="#0185fd" d="M 67.5,341.5 C 66.5037,356.991 66.1704,372.658 66.5,388.5C 54.8333,388.5 43.1667,388.5 31.5,388.5C 31.5,360.833 31.5,333.167 31.5,305.5C 59.1667,305.5 86.8333,305.5 114.5,305.5C 114.5,317.167 114.5,328.833 114.5,340.5C 98.6578,340.17 82.9911,340.504 67.5,341.5 Z"/></g>
<g><path style="opacity:1" fill="#030303" d="M 618.5,318.5 C 645.34,316.176 666.507,325.843 682,347.5C 696.131,375.492 692.631,400.992 671.5,424C 649.809,440.834 626.143,444.167 600.5,434C 574.385,419.604 563.218,397.437 567,367.5C 574.306,340.692 591.473,324.358 618.5,318.5 Z"/></g>
<g><path style="opacity:1" fill="#2288d0" d="M 283.5,305.5 C 283.833,305.5 284.167,305.5 284.5,305.5C 284.5,333.5 284.5,361.5 284.5,389.5C 274.167,389.5 263.833,389.5 253.5,389.5C 259.31,388.51 265.31,388.177 271.5,388.5C 275.5,388.5 279.5,388.5 283.5,388.5C 283.5,360.833 283.5,333.167 283.5,305.5 Z"/></g>
<g><path style="opacity:1" fill="#030303" d="M 399.5,319.5 C 418.018,316.881 435.018,320.714 450.5,331C 454.512,333.679 457.846,337.012 460.5,341C 455.711,347.623 450.378,353.79 444.5,359.5C 429.938,343.484 412.938,340.318 393.5,350C 376.273,363.82 372.773,380.654 383,400.5C 392.023,412.958 404.19,417.791 419.5,415C 429.147,412.845 437.147,408.011 443.5,400.5C 448.806,406.473 454.473,412.14 460.5,417.5C 440.311,439.464 415.978,445.631 387.5,436C 355.213,419.514 344.047,393.681 354,358.5C 362.856,338.144 378.023,325.144 399.5,319.5 Z"/></g>
<g><path style="opacity:1" fill="#828282" d="M 1499.5,321.5 C 1509.01,320.177 1518.67,320.177 1528.5,321.5C 1528.38,322.107 1528.04,322.44 1527.5,322.5C 1518.35,321.506 1509.01,321.173 1499.5,321.5 Z"/></g>
<g><path style="opacity:1" fill="#000000" d="M 507.5,415.5 C 524.167,415.5 540.833,415.5 557.5,415.5C 557.5,423.167 557.5,430.833 557.5,438.5C 532.167,438.5 506.833,438.5 481.5,438.5C 481.5,399.5 481.5,360.5 481.5,321.5C 489.833,321.5 498.167,321.5 506.5,321.5C 506.168,353.004 506.502,384.338 507.5,415.5 Z"/></g>
<g><path style="opacity:1" fill="#010101" d="M 710.5,321.5 C 719.167,321.5 727.833,321.5 736.5,321.5C 736.048,346.544 736.548,371.544 738,396.5C 743.69,414.865 755.523,420.698 773.5,414C 779.772,408.957 783.606,402.457 785,394.5C 785.5,370.169 785.667,345.836 785.5,321.5C 794.167,321.5 802.833,321.5 811.5,321.5C 811.667,347.169 811.5,372.835 811,398.5C 805.165,426.151 787.999,440.151 759.5,440.5C 731.766,438.6 715.6,423.934 711,396.5C 710.5,371.502 710.333,346.502 710.5,321.5 Z"/></g>
<g><path style="opacity:1" fill="#010101" d="M 888.5,321.5 C 928.859,325.026 948.026,347.026 946,387.5C 941.849,416.985 925.015,433.818 895.5,438C 876.836,438.5 858.17,438.667 839.5,438.5C 839.5,399.5 839.5,360.5 839.5,321.5C 855.833,321.5 872.167,321.5 888.5,321.5 Z"/></g>
<g><path style="opacity:1" fill="#010101" d="M 1038.5,321.5 C 1057.5,346.006 1076.33,370.672 1095,395.5C 1095.5,370.836 1095.67,346.169 1095.5,321.5C 1104.17,321.5 1112.83,321.5 1121.5,321.5C 1121.5,360.5 1121.5,399.5 1121.5,438.5C 1112.48,438.832 1103.48,438.498 1094.5,437.5C 1076.52,413.691 1058.36,390.024 1040,366.5C 1039.5,390.498 1039.33,414.498 1039.5,438.5C 1030.83,438.5 1022.17,438.5 1013.5,438.5C 1013.5,399.5 1013.5,360.5 1013.5,321.5C 1021.83,321.5 1030.17,321.5 1038.5,321.5 Z"/></g>
<g><path style="opacity:1" fill="#020202" d="M 1261.5,437.5 C 1252.68,438.493 1243.68,438.827 1234.5,438.5C 1231.25,430.162 1227.58,421.995 1223.5,414C 1207.17,413.333 1190.83,413.333 1174.5,414C 1170.42,421.995 1166.75,430.162 1163.5,438.5C 1153.99,438.827 1144.65,438.494 1135.5,437.5C 1151.9,399.15 1168.4,360.816 1185,322.5C 1194,321.167 1203,321.167 1212,322.5C 1228.51,360.859 1245.01,399.193 1261.5,437.5 Z"/></g>
<g><path style="opacity:1" fill="#000000" d="M 1318.5,344.5 C 1317.5,375.662 1317.17,406.996 1317.5,438.5C 1309.17,438.5 1300.83,438.5 1292.5,438.5C 1292.5,406.833 1292.5,375.167 1292.5,343.5C 1281.17,343.5 1269.83,343.5 1258.5,343.5C 1258.5,336.167 1258.5,328.833 1258.5,321.5C 1289.5,321.5 1320.5,321.5 1351.5,321.5C 1351.5,328.833 1351.5,336.167 1351.5,343.5C 1340.32,343.172 1329.32,343.505 1318.5,344.5 Z"/></g>
<g><path style="opacity:1" fill="#000000" d="M 1370.5,321.5 C 1379.17,321.5 1387.83,321.5 1396.5,321.5C 1396.5,360.5 1396.5,399.5 1396.5,438.5C 1387.83,438.5 1379.17,438.5 1370.5,438.5C 1370.5,399.5 1370.5,360.5 1370.5,321.5 Z"/></g>
<g><path style="opacity:1" fill="#030303" d="M 1499.5,321.5 C 1509.01,321.173 1518.35,321.506 1527.5,322.5C 1511.61,360.948 1496.28,399.615 1481.5,438.5C 1473.58,438.815 1465.75,438.482 1458,437.5C 1442.89,398.823 1427.39,360.323 1411.5,322C 1421.18,321.168 1430.85,321.335 1440.5,322.5C 1450.28,346.347 1459.78,370.347 1469,394.5C 1479.2,370.108 1489.37,345.774 1499.5,321.5 Z"/></g>
<g><path style="opacity:1" fill="#000000" d="M 1542.5,321.5 C 1570.5,321.5 1598.5,321.5 1626.5,321.5C 1626.5,329.167 1626.5,336.833 1626.5,344.5C 1607.17,344.5 1587.83,344.5 1568.5,344.5C 1568.5,352.5 1568.5,360.5 1568.5,368.5C 1585.83,368.5 1603.17,368.5 1620.5,368.5C 1620.5,375.833 1620.5,383.167 1620.5,390.5C 1602.99,390.17 1585.66,390.503 1568.5,391.5C 1568.5,399.5 1568.5,407.5 1568.5,415.5C 1588.5,415.5 1608.5,415.5 1628.5,415.5C 1628.5,423.167 1628.5,430.833 1628.5,438.5C 1599.83,438.5 1571.17,438.5 1542.5,438.5C 1542.5,399.5 1542.5,360.5 1542.5,321.5 Z"/></g>
<g><path style="opacity:1" fill="#7f7f7f" d="M 888.5,321.5 C 872.167,321.5 855.833,321.5 839.5,321.5C 839.5,360.5 839.5,399.5 839.5,438.5C 838.501,399.337 838.168,360.004 838.5,320.5C 855.342,320.17 872.008,320.503 888.5,321.5 Z"/></g>
<g><path style="opacity:1" fill="#474747" d="M 507.5,415.5 C 506.502,384.338 506.168,353.004 506.5,321.5C 498.167,321.5 489.833,321.5 481.5,321.5C 481.5,360.5 481.5,399.5 481.5,438.5C 480.501,399.337 480.168,360.004 480.5,320.5C 489.5,320.5 498.5,320.5 507.5,320.5C 507.5,352.167 507.5,383.833 507.5,415.5 Z"/></g>
<g><path style="opacity:1" fill="#7f7f7f" d="M 1038.5,321.5 C 1030.17,321.5 1021.83,321.5 1013.5,321.5C 1013.5,360.5 1013.5,399.5 1013.5,438.5C 1012.5,399.337 1012.17,360.004 1012.5,320.5C 1021.35,320.174 1030.02,320.507 1038.5,321.5 Z"/></g>
<g><path style="opacity:1" fill="#b5b5b5" d="M 1370.5,321.5 C 1379.32,320.507 1388.32,320.173 1397.5,320.5C 1397.83,360.004 1397.5,399.337 1396.5,438.5C 1396.5,399.5 1396.5,360.5 1396.5,321.5C 1387.83,321.5 1379.17,321.5 1370.5,321.5 Z"/></g>
<g><path style="opacity:1" fill="#454545" d="M 1542.5,321.5 C 1542.5,360.5 1542.5,399.5 1542.5,438.5C 1571.17,438.5 1599.83,438.5 1628.5,438.5C 1628.5,430.833 1628.5,423.167 1628.5,415.5C 1629.49,423.316 1629.83,431.316 1629.5,439.5C 1600.17,439.5 1570.83,439.5 1541.5,439.5C 1541.17,399.996 1541.5,360.663 1542.5,321.5 Z"/></g>
<g><path style="opacity:0.8" fill="#ffffff" d="M 620.5,341.5 C 643.481,339.741 657.648,350.075 663,372.5C 665.056,389.88 658.89,403.38 644.5,413C 625.261,421.477 609.761,416.977 598,399.5C 588.345,379.956 591.512,362.789 607.5,348C 611.647,345.26 615.98,343.093 620.5,341.5 Z"/></g>
<g><path style="opacity:0.8" fill="#ffffff" d="M 67.5,341.5 C 83.5,341.5 99.5,341.5 115.5,341.5C 118.608,345.945 122.608,349.278 127.5,351.5C 127.351,352.552 127.517,353.552 128,354.5C 132.167,358.667 136.333,362.833 140.5,367C 141.448,367.483 142.448,367.649 143.5,367.5C 143.351,368.552 143.517,369.552 144,370.5C 150.204,377.039 156.704,383.206 163.5,389C 173.828,389.5 184.161,389.666 194.5,389.5C 194.649,388.448 194.483,387.448 194,386.5C 188.988,382.988 184.821,378.654 181.5,373.5C 170.671,365.274 161.004,355.941 152.5,345.5C 152.5,344.5 152.5,343.5 152.5,342.5C 184.167,342.5 215.833,342.5 247.5,342.5C 247.667,372.835 247.5,403.168 247,433.5C 246.692,434.308 246.192,434.975 245.5,435.5C 243.55,434.628 241.55,433.961 239.5,433.5C 227.175,420.508 214.508,407.841 201.5,395.5C 200.808,396.025 200.308,396.692 200,397.5C 199.333,406.833 199.333,416.167 200,425.5C 212.475,437.642 224.641,450.142 236.5,463C 237.448,463.483 238.448,463.649 239.5,463.5C 239.351,464.552 239.517,465.552 240,466.5C 242.755,469.083 245.255,471.749 247.5,474.5C 247.5,489.833 247.5,505.167 247.5,520.5C 231.5,520.5 215.5,520.5 199.5,520.5C 191.89,513.061 184.057,505.728 176,498.5C 175.517,497.552 175.351,496.552 175.5,495.5C 174.325,495.719 173.325,495.386 172.5,494.5C 165.789,487.188 158.789,480.355 151.5,474C 141.151,473.168 130.817,473.334 120.5,474.5C 128.571,482.398 136.904,490.231 145.5,498C 150.77,502.952 155.437,508.119 159.5,513.5C 160.801,515.672 161.801,518.005 162.5,520.5C 131.167,520.5 99.8333,520.5 68.5,520.5C 68.1668,489.16 68.5002,457.826 69.5,426.5C 71.0429,429.39 73.3762,431.057 76.5,431.5C 77.5,431.5 78.5,431.5 79.5,431.5C 79.3505,432.552 79.5172,433.552 80,434.5C 84.8333,438 89,442.167 92.5,447C 93.448,447.483 94.448,447.649 95.5,447.5C 95.3505,448.552 95.5172,449.552 96,450.5C 100.167,454.667 104.333,458.833 108.5,463C 109.448,463.483 110.448,463.649 111.5,463.5C 111.277,466.114 112.444,467.781 115,468.5C 115.5,457.172 115.667,445.838 115.5,434.5C 114.448,434.649 113.448,434.483 112.5,434C 107.344,428.512 101.844,423.345 96,418.5C 95.5172,417.552 95.3505,416.552 95.5,415.5C 93.0947,414.313 90.7613,412.813 88.5,411C 82.0487,403.214 75.0487,396.047 67.5,389.5C 67.5,373.5 67.5,357.5 67.5,341.5 Z"/></g>
<g><path style="opacity:0.8" fill="#ffffff" d="M 885.5,344.5 C 903.745,344.856 914.912,353.856 919,371.5C 920.654,382.917 918.654,393.584 913,403.5C 907.386,409.435 900.553,413.268 892.5,415C 883.84,415.5 875.173,415.666 866.5,415.5C 866.5,391.833 866.5,368.167 866.5,344.5C 872.833,344.5 879.167,344.5 885.5,344.5 Z"/></g>
<g><path style="opacity:1" fill="#b0b0b0" d="M 885.5,344.5 C 879.167,344.5 872.833,344.5 866.5,344.5C 866.5,368.167 866.5,391.833 866.5,415.5C 865.502,391.672 865.169,367.672 865.5,343.5C 872.354,343.176 879.021,343.509 885.5,344.5 Z"/></g>
<g><path style="opacity:1" fill="#ddfdfe" d="M 200.5,341.5 C 216.5,341.5 232.5,341.5 248.5,341.5C 248.5,357.5 248.5,373.5 248.5,389.5C 248.667,406.837 248.5,424.17 248,441.5C 245.271,438.601 242.438,435.934 239.5,433.5C 241.55,433.961 243.55,434.628 245.5,435.5C 246.192,434.975 246.692,434.308 247,433.5C 247.5,403.168 247.667,372.835 247.5,342.5C 215.833,342.5 184.167,342.5 152.5,342.5C 152.5,343.5 152.5,344.5 152.5,345.5C 151.185,344.524 149.852,343.524 148.5,342.5C 165.821,341.5 183.154,341.167 200.5,341.5 Z"/></g>
<g><path style="opacity:1" fill="#2f7eb9" d="M 248.5,341.5 C 249.181,357.402 249.847,373.402 250.5,389.5C 249.833,389.5 249.167,389.5 248.5,389.5C 248.5,373.5 248.5,357.5 248.5,341.5 Z"/></g>
<g><path style="opacity:1" fill="#474747" d="M 1258.5,343.5 C 1269.83,343.5 1281.17,343.5 1292.5,343.5C 1292.5,375.167 1292.5,406.833 1292.5,438.5C 1300.83,438.5 1309.17,438.5 1317.5,438.5C 1317.17,406.996 1317.5,375.662 1318.5,344.5C 1318.5,376.167 1318.5,407.833 1318.5,439.5C 1309.5,439.5 1300.5,439.5 1291.5,439.5C 1291.5,407.833 1291.5,376.167 1291.5,344.5C 1280.32,344.828 1269.32,344.495 1258.5,343.5 Z"/></g>
<g><path style="opacity:0.8" fill="#ffffff" d="M 1212.5,387.5 C 1208.55,388.825 1204.22,389.492 1199.5,389.5C 1194.78,389.492 1190.45,388.825 1186.5,387.5C 1190.45,377.325 1194.78,367.325 1199.5,357.5C 1204.38,367.258 1208.71,377.258 1212.5,387.5 Z"/></g>
<g><path style="opacity:1" fill="#3ca0e9" d="M 67.5,341.5 C 67.5,357.5 67.5,373.5 67.5,389.5C 55.5,389.5 43.5,389.5 31.5,389.5C 31.5,389.167 31.5,388.833 31.5,388.5C 43.1667,388.5 54.8333,388.5 66.5,388.5C 66.1704,372.658 66.5037,356.991 67.5,341.5 Z"/></g>
<g><path style="opacity:1" fill="#bfbfbf" d="M 1186.5,387.5 C 1190.45,388.825 1194.78,389.492 1199.5,389.5C 1204.22,389.492 1208.55,388.825 1212.5,387.5C 1213.4,388.209 1213.74,389.209 1213.5,390.5C 1204.17,390.5 1194.83,390.5 1185.5,390.5C 1185.26,389.209 1185.6,388.209 1186.5,387.5 Z"/></g>
<g><path style="opacity:1" fill="#4d4d4d" d="M 1620.5,368.5 C 1621.49,375.982 1621.83,383.648 1621.5,391.5C 1603.83,391.5 1586.17,391.5 1568.5,391.5C 1585.66,390.503 1602.99,390.17 1620.5,390.5C 1620.5,383.167 1620.5,375.833 1620.5,368.5 Z"/></g>
<g><path style="opacity:1" fill="#94e9fc" d="M 31.5,389.5 C 43.5,389.5 55.5,389.5 67.5,389.5C 75.0487,396.047 82.0487,403.214 88.5,411C 90.7613,412.813 93.0947,414.313 95.5,415.5C 95.3505,416.552 95.5172,417.552 96,418.5C 101.844,423.345 107.344,428.512 112.5,434C 113.448,434.483 114.448,434.649 115.5,434.5C 115.667,445.838 115.5,457.172 115,468.5C 112.444,467.781 111.277,466.114 111.5,463.5C 110.448,463.649 109.448,463.483 108.5,463C 104.333,458.833 100.167,454.667 96,450.5C 95.5172,449.552 95.3505,448.552 95.5,447.5C 94.448,447.649 93.448,447.483 92.5,447C 89,442.167 84.8333,438 80,434.5C 79.5172,433.552 79.3505,432.552 79.5,431.5C 78.5,431.5 77.5,431.5 76.5,431.5C 73.8155,428.317 70.9821,425.317 68,422.5C 67.5001,439.497 67.3334,456.497 67.5,473.5C 55.1667,473.5 42.8333,473.5 30.5,473.5C 31.4097,445.513 31.7431,417.513 31.5,389.5 Z"/></g>
<g><path style="opacity:1" fill="#d6f6fe" d="M 284.5,304.5 C 285.117,304.611 285.617,304.944 286,305.5C 286.167,347.667 286.333,389.833 286.5,432C 286.5,474.505 285.833,516.672 284.5,558.5C 284.5,530.167 284.5,501.833 284.5,473.5C 284.5,445.5 284.5,417.5 284.5,389.5C 284.5,361.5 284.5,333.5 284.5,305.5C 284.5,305.167 284.5,304.833 284.5,304.5 Z"/></g>
<g><path style="opacity:1" fill="#95e9fb" d="M 248.5,389.5 C 249.167,389.5 249.833,389.5 250.5,389.5C 251.5,389.5 252.5,389.5 253.5,389.5C 263.833,389.5 274.167,389.5 284.5,389.5C 284.5,417.5 284.5,445.5 284.5,473.5C 272.322,473.172 260.322,473.505 248.5,474.5C 248.167,474.5 247.833,474.5 247.5,474.5C 245.255,471.749 242.755,469.083 240,466.5C 239.517,465.552 239.351,464.552 239.5,463.5C 238.448,463.649 237.448,463.483 236.5,463C 224.641,450.142 212.475,437.642 200,425.5C 199.333,416.167 199.333,406.833 200,397.5C 200.308,396.692 200.808,396.025 201.5,395.5C 214.508,407.841 227.175,420.508 239.5,433.5C 242.438,435.934 245.271,438.601 248,441.5C 248.5,424.17 248.667,406.837 248.5,389.5 Z"/></g>
<g><path style="opacity:1" fill="#bebebe" d="M 1135.5,437.5 C 1144.65,438.494 1153.99,438.827 1163.5,438.5C 1153.99,439.823 1144.33,439.823 1134.5,438.5C 1134.62,437.893 1134.96,437.56 1135.5,437.5 Z"/></g>
<g><path style="opacity:1" fill="#bfbfbf" d="M 1261.5,437.5 C 1262.04,437.56 1262.38,437.893 1262.5,438.5C 1253.01,439.822 1243.67,439.822 1234.5,438.5C 1243.68,438.827 1252.68,438.493 1261.5,437.5 Z"/></g>
<g><path style="opacity:1" fill="#0186fc" d="M 67.5,521.5 C 82.7533,522.032 98.0866,522.865 113.5,524C 114.487,535.085 114.821,546.252 114.5,557.5C 86.8333,557.5 59.1667,557.5 31.5,557.5C 31.5,529.833 31.5,502.167 31.5,474.5C 43.1667,474.5 54.8333,474.5 66.5,474.5C 66.1704,490.342 66.5037,506.009 67.5,521.5 Z"/></g>
<g><path style="opacity:1" fill="#529fdc" d="M 30.5,473.5 C 42.8333,473.5 55.1667,473.5 67.5,473.5C 67.5,489.5 67.5,505.5 67.5,521.5C 66.5037,506.009 66.1704,490.342 66.5,474.5C 54.8333,474.5 43.1667,474.5 31.5,474.5C 31.5,502.167 31.5,529.833 31.5,557.5C 31.5,557.833 31.5,558.167 31.5,558.5C 30.502,530.338 30.1687,502.005 30.5,473.5 Z"/></g>
<g><path style="opacity:1" fill="#e0fefe" d="M 76.5,431.5 C 73.3762,431.057 71.0429,429.39 69.5,426.5C 68.5002,457.826 68.1668,489.16 68.5,520.5C 99.8333,520.5 131.167,520.5 162.5,520.5C 161.801,518.005 160.801,515.672 159.5,513.5C 162.167,515.173 164.167,517.507 165.5,520.5C 148.847,521.499 132.18,521.833 115.5,521.5C 99.5,521.5 83.5,521.5 67.5,521.5C 67.5,505.5 67.5,489.5 67.5,473.5C 67.3334,456.497 67.5001,439.497 68,422.5C 70.9821,425.317 73.8155,428.317 76.5,431.5 Z"/></g>
<g><path style="opacity:1" fill="#94e9fc" d="M 199.5,520.5 C 199.5,521.167 199.833,521.5 200.5,521.5C 200.5,533.833 200.5,546.167 200.5,558.5C 172.167,558.5 143.833,558.5 115.5,558.5C 115.5,546.167 115.5,533.833 115.5,521.5C 132.18,521.833 148.847,521.499 165.5,520.5C 164.167,517.507 162.167,515.173 159.5,513.5C 155.437,508.119 150.77,502.952 145.5,498C 136.904,490.231 128.571,482.398 120.5,474.5C 130.817,473.334 141.151,473.168 151.5,474C 158.789,480.355 165.789,487.188 172.5,494.5C 173.325,495.386 174.325,495.719 175.5,495.5C 175.351,496.552 175.517,497.552 176,498.5C 184.057,505.728 191.89,513.061 199.5,520.5 Z"/></g>
<g><path style="opacity:1" fill="#070707" d="M 374.5,484.5 C 388.333,482.832 400,486.998 409.5,497C 405.964,500.201 402.797,503.701 400,507.5C 391.033,497.542 380.866,496.042 369.5,503C 361.51,511.513 360.343,521.013 366,531.5C 374.498,539.519 383.998,540.685 394.5,535C 396.017,533.315 397.684,531.815 399.5,530.5C 402.123,533.625 404.956,536.625 408,539.5C 407.805,541.745 406.638,543.578 404.5,545C 391.056,553.747 377.056,554.747 362.5,548C 349.612,538.352 344.779,525.519 348,509.5C 352.548,496.448 361.381,488.114 374.5,484.5 Z"/></g>
<g><path style="opacity:1" fill="#060606" d="M 442.5,484.5 C 463.865,482.76 477.698,492.094 484,512.5C 484.019,542.139 469.185,555.306 439.5,552C 420.236,544.352 412.403,530.185 416,509.5C 420.548,496.448 429.381,488.114 442.5,484.5 Z"/></g>
<g><path style="opacity:1" fill="#050505" d="M 1065.5,484.5 C 1093.68,483.848 1107.18,497.514 1106,525.5C 1099.43,546.884 1084.93,555.718 1062.5,552C 1044.01,544.873 1035.85,531.373 1038,511.5C 1042.45,497.545 1051.62,488.545 1065.5,484.5 Z"/></g>
<g><path style="opacity:1" fill="#060606" d="M 1516.5,484.5 C 1544.69,483.858 1558.19,497.525 1557,525.5C 1550.43,546.884 1535.93,555.718 1513.5,552C 1495.62,545.419 1487.45,532.585 1489,513.5C 1492.57,498.433 1501.74,488.766 1516.5,484.5 Z"/></g>
<g><path style="opacity:1" fill="#030303" d="M 691.5,525.5 C 692.495,512.677 692.829,499.677 692.5,486.5C 697.167,486.5 701.833,486.5 706.5,486.5C 706.667,501.504 706.5,516.504 706,531.5C 702.028,545.5 692.695,552.5 678,552.5C 664.275,552.144 655.275,545.477 651,532.5C 650.5,516.837 650.333,501.17 650.5,485.5C 655.167,485.5 659.833,485.5 664.5,485.5C 664.333,499.504 664.5,513.504 665,527.5C 669.201,540.222 676.867,542.889 688,535.5C 689.868,532.395 691.035,529.062 691.5,525.5 Z"/></g>
<g><path style="opacity:1" fill="#060606" d="M 908.5,485.5 C 919.695,483.923 930.028,486.089 939.5,492C 940.574,492.739 941.241,493.739 941.5,495C 939.793,498.913 937.46,502.413 934.5,505.5C 924.8,498.246 914.8,497.746 904.5,504C 897.459,512.851 896.626,522.351 902,532.5C 909.52,540.962 918.353,542.629 928.5,537.5C 929.496,531.202 929.83,524.868 929.5,518.5C 934.833,518.5 940.167,518.5 945.5,518.5C 945.666,526.507 945.5,534.507 945,542.5C 933.18,553.162 919.68,555.995 904.5,551C 887.79,543.084 880.957,529.917 884,511.5C 887.925,498.744 896.092,490.078 908.5,485.5 Z"/></g>
<g><path style="opacity:1" fill="#030303" d="M 1160.5,486.5 C 1165.17,486.5 1169.83,486.5 1174.5,486.5C 1174.5,500.5 1174.5,514.5 1174.5,528.5C 1170.75,546.901 1159.42,554.734 1140.5,552C 1128.26,549.349 1121.09,541.849 1119,529.5C 1118.5,514.837 1118.33,500.17 1118.5,485.5C 1123.5,485.5 1128.5,485.5 1133.5,485.5C 1133.33,499.837 1133.5,514.171 1134,528.5C 1137.18,538.505 1143.68,541.671 1153.5,538C 1156.81,535.222 1158.97,531.722 1160,527.5C 1160.5,513.837 1160.67,500.171 1160.5,486.5 Z"/></g>
<g><path style="opacity:1" fill="#434343" d="M 1372.5,486.5 C 1367.41,486.221 1362.41,486.555 1357.5,487.5C 1359.57,486.191 1362.07,485.525 1365,485.5C 1367.69,485.503 1370.19,485.836 1372.5,486.5 Z"/></g>
<g><path style="opacity:1" fill="#040404" d="M 570.5,551.5 C 565.833,551.5 561.167,551.5 556.5,551.5C 556.833,538.15 556.499,524.817 555.5,511.5C 554.893,511.624 554.56,511.957 554.5,512.5C 549.45,523.6 544.117,534.6 538.5,545.5C 535.167,546.833 531.833,546.833 528.5,545.5C 522.728,534.289 517.228,522.956 512,511.5C 511.5,525.163 511.333,538.829 511.5,552.5C 506.5,552.5 501.5,552.5 496.5,552.5C 496.5,530.167 496.5,507.833 496.5,485.5C 503.175,485.334 509.842,485.5 516.5,486C 522.039,497.577 527.705,509.077 533.5,520.5C 539.295,509.077 544.961,497.577 550.5,486C 557.158,485.5 563.825,485.334 570.5,485.5C 570.5,507.5 570.5,529.5 570.5,551.5 Z"/></g>
<g><path style="opacity:1" fill="#020202" d="M 615.5,486.5 C 634.407,488.282 642.241,498.616 639,517.5C 635.179,529.177 627.013,534.511 614.5,533.5C 610.167,533.5 605.833,533.5 601.5,533.5C 601.5,539.5 601.5,545.5 601.5,551.5C 596.833,551.5 592.167,551.5 587.5,551.5C 587.5,529.833 587.5,508.167 587.5,486.5C 596.833,486.5 606.167,486.5 615.5,486.5 Z"/></g>
<g><path style="opacity:1" fill="#000000" d="M 768.5,498.5 C 762.167,498.5 755.833,498.5 749.5,498.5C 749.5,516.167 749.5,533.833 749.5,551.5C 744.833,551.5 740.167,551.5 735.5,551.5C 735.5,533.833 735.5,516.167 735.5,498.5C 729.167,498.5 722.833,498.5 716.5,498.5C 716.5,494.5 716.5,490.5 716.5,486.5C 733.833,486.5 751.167,486.5 768.5,486.5C 768.5,490.5 768.5,494.5 768.5,498.5 Z"/></g>
<g><path style="opacity:1" fill="#060606" d="M 779.5,486.5 C 784.5,486.5 789.5,486.5 794.5,486.5C 794.5,508.5 794.5,530.5 794.5,552.5C 789.5,552.5 784.5,552.5 779.5,552.5C 779.5,530.5 779.5,508.5 779.5,486.5 Z"/></g>
<g><path style="opacity:1" fill="#070707" d="M 810.5,486.5 C 815.544,486.173 820.544,486.506 825.5,487.5C 835.858,500.691 846.025,514.024 856,527.5C 856.5,513.837 856.667,500.171 856.5,486.5C 861.5,486.5 866.5,486.5 871.5,486.5C 871.5,508.5 871.5,530.5 871.5,552.5C 866.125,552.828 860.792,552.495 855.5,551.5C 845.475,538.642 835.641,525.642 826,512.5C 825.5,525.829 825.333,539.163 825.5,552.5C 820.5,552.5 815.5,552.5 810.5,552.5C 810.5,530.5 810.5,508.5 810.5,486.5 Z"/></g>
<g><path style="opacity:1" fill="#030303" d="M 983.5,486.5 C 998.5,486.5 1013.5,486.5 1028.5,486.5C 1028.5,490.833 1028.5,495.167 1028.5,499.5C 1018.5,499.5 1008.5,499.5 998.5,499.5C 998.5,504.167 998.5,508.833 998.5,513.5C 1008.17,513.5 1017.83,513.5 1027.5,513.5C 1027.5,517.833 1027.5,522.167 1027.5,526.5C 1017.83,526.5 1008.17,526.5 998.5,526.5C 998.5,535.167 998.5,543.833 998.5,552.5C 993.5,552.5 988.5,552.5 983.5,552.5C 983.5,530.5 983.5,508.5 983.5,486.5 Z"/></g>
<g><path style="opacity:1" fill="#070707" d="M 1190.5,486.5 C 1195.18,486.334 1199.85,486.501 1204.5,487C 1215.38,500.214 1225.88,513.714 1236,527.5C 1236.5,513.837 1236.67,500.171 1236.5,486.5C 1241.5,486.5 1246.5,486.5 1251.5,486.5C 1251.5,508.5 1251.5,530.5 1251.5,552.5C 1246.13,552.828 1240.79,552.495 1235.5,551.5C 1225.47,538.642 1215.64,525.642 1206,512.5C 1205.5,525.829 1205.33,539.163 1205.5,552.5C 1200.5,552.5 1195.5,552.5 1190.5,552.5C 1190.5,530.5 1190.5,508.5 1190.5,486.5 Z"/></g>
<g><path style="opacity:1" fill="#040404" d="M 1267.5,486.5 C 1278.84,486.333 1290.17,486.5 1301.5,487C 1315.14,489.307 1323.64,497.141 1327,510.5C 1329.35,524.443 1325.52,536.276 1315.5,546C 1310.32,549.394 1304.65,551.394 1298.5,552C 1288.17,552.5 1277.84,552.666 1267.5,552.5C 1267.5,530.5 1267.5,508.5 1267.5,486.5 Z"/></g>
<g><path style="opacity:1" fill="#040404" d="M 1372.5,486.5 C 1382.01,507.679 1391.34,529.012 1400.5,550.5C 1395.36,551.488 1390.03,551.821 1384.5,551.5C 1383.12,547.077 1381.46,542.744 1379.5,538.5C 1370.18,537.335 1360.85,537.168 1351.5,538C 1349.87,542.752 1347.87,547.252 1345.5,551.5C 1340.31,551.821 1335.31,551.487 1330.5,550.5C 1339.23,529.38 1348.23,508.38 1357.5,487.5C 1362.41,486.555 1367.41,486.221 1372.5,486.5 Z"/></g>
<g><path style="opacity:1" fill="#000000" d="M 1432.5,499.5 C 1431.5,516.659 1431.17,533.992 1431.5,551.5C 1426.83,551.5 1422.17,551.5 1417.5,551.5C 1417.5,533.833 1417.5,516.167 1417.5,498.5C 1411.17,498.5 1404.83,498.5 1398.5,498.5C 1398.5,494.5 1398.5,490.5 1398.5,486.5C 1415.83,486.5 1433.17,486.5 1450.5,486.5C 1450.5,490.5 1450.5,494.5 1450.5,498.5C 1444.31,498.177 1438.31,498.51 1432.5,499.5 Z"/></g>
<g><path style="opacity:1" fill="#060606" d="M 1461.5,486.5 C 1466.5,486.5 1471.5,486.5 1476.5,486.5C 1476.5,508.5 1476.5,530.5 1476.5,552.5C 1471.5,552.5 1466.5,552.5 1461.5,552.5C 1461.5,530.5 1461.5,508.5 1461.5,486.5 Z"/></g>
<g><path style="opacity:1" fill="#060606" d="M 1570.5,486.5 C 1575.54,486.173 1580.54,486.506 1585.5,487.5C 1595.86,500.691 1606.03,514.024 1616,527.5C 1616.5,513.837 1616.67,500.171 1616.5,486.5C 1621.5,486.5 1626.5,486.5 1631.5,486.5C 1631.5,508.5 1631.5,530.5 1631.5,552.5C 1626.13,552.828 1620.79,552.495 1615.5,551.5C 1605.47,538.642 1595.64,525.642 1586,512.5C 1585.5,525.829 1585.33,539.163 1585.5,552.5C 1580.5,552.5 1575.5,552.5 1570.5,552.5C 1570.5,530.5 1570.5,508.5 1570.5,486.5 Z"/></g>
<g><path style="opacity:1" fill="#414141" d="M 706.5,486.5 C 701.833,486.5 697.167,486.5 692.5,486.5C 692.829,499.677 692.495,512.677 691.5,525.5C 691.5,512.167 691.5,498.833 691.5,485.5C 696.695,485.179 701.695,485.513 706.5,486.5 Z"/></g>
<g><path style="opacity:1" fill="#6f6f6f" d="M 1160.5,486.5 C 1165.31,485.513 1170.31,485.179 1175.5,485.5C 1175.83,500.01 1175.5,514.343 1174.5,528.5C 1174.5,514.5 1174.5,500.5 1174.5,486.5C 1169.83,486.5 1165.17,486.5 1160.5,486.5 Z"/></g>
<g><path style="opacity:1" fill="#6d6d6d" d="M 615.5,486.5 C 606.167,486.5 596.833,486.5 587.5,486.5C 587.5,508.167 587.5,529.833 587.5,551.5C 592.167,551.5 596.833,551.5 601.5,551.5C 601.5,545.5 601.5,539.5 601.5,533.5C 605.833,533.5 610.167,533.5 614.5,533.5C 610.702,534.483 606.702,534.817 602.5,534.5C 602.5,540.5 602.5,546.5 602.5,552.5C 597.167,552.5 591.833,552.5 586.5,552.5C 586.5,530.167 586.5,507.833 586.5,485.5C 596.348,485.173 606.014,485.506 615.5,486.5 Z"/></g>
<g><path style="opacity:0.8" fill="#ffffff" d="M 444.5,497.5 C 457.004,496.167 465.17,501.501 469,513.5C 470.376,532.124 461.876,540.624 443.5,539C 430.619,531.023 427.453,520.19 434,506.5C 436.84,502.673 440.34,499.673 444.5,497.5 Z"/></g>
<g><path style="opacity:0.8" fill="#ffffff" d="M 1518.5,497.5 C 1536.94,497.779 1544.77,507.112 1542,525.5C 1536.44,539.132 1526.94,542.965 1513.5,537C 1503.86,527.896 1502.03,517.396 1508,505.5C 1510.94,501.963 1514.44,499.297 1518.5,497.5 Z"/></g>
<g><path style="opacity:0.8" fill="#ffffff" d="M 1066.5,497.5 C 1084.44,496.938 1092.6,505.605 1091,523.5C 1085.53,539.494 1075.36,543.66 1060.5,536C 1048.27,520.871 1050.27,508.037 1066.5,497.5 Z"/></g>
<g><path style="opacity:0.8" fill="#ffffff" d="M 613.5,499.5 C 624.601,501.373 627.435,507.373 622,517.5C 620.2,519.317 618.034,520.484 615.5,521C 610.98,521.814 606.646,521.647 602.5,520.5C 602.5,513.5 602.5,506.5 602.5,499.5C 606.167,499.5 609.833,499.5 613.5,499.5 Z"/></g>
<g><path style="opacity:0.8" fill="#ffffff" d="M 1282.5,499.5 C 1291.06,498.361 1299.06,499.861 1306.5,504C 1314.48,514.201 1314.48,524.368 1306.5,534.5C 1299.16,538.986 1291.16,540.652 1282.5,539.5C 1282.5,526.167 1282.5,512.833 1282.5,499.5 Z"/></g>
<g><path style="opacity:1" fill="#7d7d7d" d="M 613.5,499.5 C 609.833,499.5 606.167,499.5 602.5,499.5C 602.5,506.5 602.5,513.5 602.5,520.5C 601.508,513.352 601.175,506.019 601.5,498.5C 605.702,498.183 609.702,498.517 613.5,499.5 Z"/></g>
<g><path style="opacity:1" fill="#7b7b7b" d="M 716.5,498.5 C 722.833,498.5 729.167,498.5 735.5,498.5C 735.5,516.167 735.5,533.833 735.5,551.5C 740.167,551.5 744.833,551.5 749.5,551.5C 749.5,533.833 749.5,516.167 749.5,498.5C 755.833,498.5 762.167,498.5 768.5,498.5C 762.69,499.49 756.69,499.823 750.5,499.5C 750.5,517.167 750.5,534.833 750.5,552.5C 745.167,552.5 739.833,552.5 734.5,552.5C 734.5,534.833 734.5,517.167 734.5,499.5C 728.31,499.823 722.31,499.49 716.5,498.5 Z"/></g>
<g><path style="opacity:1" fill="#b0b0b0" d="M 1398.5,498.5 C 1404.83,498.5 1411.17,498.5 1417.5,498.5C 1417.5,516.167 1417.5,533.833 1417.5,551.5C 1417.5,551.833 1417.5,552.167 1417.5,552.5C 1416.5,535.008 1416.17,517.341 1416.5,499.5C 1410.31,499.823 1404.31,499.49 1398.5,498.5 Z"/></g>
<g><path style="opacity:1" fill="#404040" d="M 1432.5,499.5 C 1432.5,517.167 1432.5,534.833 1432.5,552.5C 1427.5,552.5 1422.5,552.5 1417.5,552.5C 1417.5,552.167 1417.5,551.833 1417.5,551.5C 1422.17,551.5 1426.83,551.5 1431.5,551.5C 1431.17,533.992 1431.5,516.659 1432.5,499.5 Z"/></g>
<g><path style="opacity:0" fill="#ffffff" d="M 1364.5,507.5 C 1365.38,507.369 1366.04,507.702 1366.5,508.5C 1368.7,513.741 1371.04,518.908 1373.5,524C 1368.17,524.667 1362.83,524.667 1357.5,524C 1359.7,518.436 1362.03,512.936 1364.5,507.5 Z"/></g>
<g><path style="opacity:1" fill="#d7fdff" d="M 247.5,474.5 C 247.833,474.5 248.167,474.5 248.5,474.5C 248.5,490.167 248.5,505.833 248.5,521.5C 232.5,521.5 216.5,521.5 200.5,521.5C 199.833,521.5 199.5,521.167 199.5,520.5C 215.5,520.5 231.5,520.5 247.5,520.5C 247.5,505.167 247.5,489.833 247.5,474.5 Z"/></g>
<g><path style="opacity:1" fill="#404040" d="M 554.5,512.5 C 554.56,511.957 554.893,511.624 555.5,511.5C 556.499,524.817 556.833,538.15 556.5,551.5C 561.167,551.5 565.833,551.5 570.5,551.5C 565.695,552.487 560.695,552.821 555.5,552.5C 555.829,538.99 555.496,525.656 554.5,512.5 Z"/></g>
<g><path style="opacity:1" fill="#3992da" d="M 67.5,521.5 C 83.5,521.5 99.5,521.5 115.5,521.5C 115.5,533.833 115.5,546.167 115.5,558.5C 87.5,558.5 59.5,558.5 31.5,558.5C 31.5,558.167 31.5,557.833 31.5,557.5C 59.1667,557.5 86.8333,557.5 114.5,557.5C 114.821,546.252 114.487,535.085 113.5,524C 98.0866,522.865 82.7533,522.032 67.5,521.5 Z"/></g>
<g><path style="opacity:1" fill="#414141" d="M 1330.5,550.5 C 1335.31,551.487 1340.31,551.821 1345.5,551.5C 1340.32,552.815 1334.99,552.815 1329.5,551.5C 1329.62,550.893 1329.96,550.56 1330.5,550.5 Z"/></g>
<g><path style="opacity:1" fill="#494949" d="M 1400.5,550.5 C 1401.04,550.56 1401.38,550.893 1401.5,551.5C 1395.68,552.816 1390.01,552.816 1384.5,551.5C 1390.03,551.821 1395.36,551.488 1400.5,550.5 Z"/></g>
<g><path style="opacity:1" fill="#2c83c8" d="M 284.5,473.5 C 284.5,501.833 284.5,530.167 284.5,558.5C 256.5,558.5 228.5,558.5 200.5,558.5C 200.5,546.167 200.5,533.833 200.5,521.5C 216.5,521.5 232.5,521.5 248.5,521.5C 248.5,505.833 248.5,490.167 248.5,474.5C 260.322,473.505 272.322,473.172 284.5,473.5 Z"/></g>
<g><path style="opacity:1" fill="#0a84e9" d="M 271.5,557.5 C 274.962,556.518 278.629,556.185 282.5,556.5C 282.5,529.5 282.5,502.5 282.5,475.5C 280.084,475.961 278.25,477.294 277,479.5C 275.699,478.902 274.865,477.902 274.5,476.5C 266.528,475.502 258.528,475.169 250.5,475.5C 250.83,491.009 250.496,506.342 249.5,521.5C 249.5,505.833 249.5,490.167 249.5,474.5C 260.833,474.5 272.167,474.5 283.5,474.5C 283.5,502.167 283.5,529.833 283.5,557.5C 279.5,557.5 275.5,557.5 271.5,557.5 Z"/></g>
<g><path style="opacity:1" fill="#0186fd" d="M 271.5,557.5 C 248.167,557.5 224.833,557.5 201.5,557.5C 201.5,545.833 201.5,534.167 201.5,522.5C 217.342,522.83 233.009,522.496 248.5,521.5C 248.833,521.5 249.167,521.5 249.5,521.5C 250.496,506.342 250.83,491.009 250.5,475.5C 258.528,475.169 266.528,475.502 274.5,476.5C 274.865,477.902 275.699,478.902 277,479.5C 278.25,477.294 280.084,475.961 282.5,475.5C 282.5,502.5 282.5,529.5 282.5,556.5C 278.629,556.185 274.962,556.518 271.5,557.5 Z"/></g>
<g><path style="opacity:1" fill="#d8fcfc" d="M 115.5,304.5 C 87.1667,304.5 58.8333,304.5 30.5,304.5C 30.1687,333.005 30.502,361.338 31.5,389.5C 31.7431,417.513 31.4097,445.513 30.5,473.5C 30.1687,502.005 30.502,530.338 31.5,558.5C 59.5,558.5 87.5,558.5 115.5,558.5C 143.833,558.5 172.167,558.5 200.5,558.5C 228.5,558.5 256.5,558.5 284.5,558.5C 199.335,559.499 114.002,559.833 28.5,559.5C 29.1508,474.168 29.4841,388.835 29.5,303.5C 58.3382,303.169 87.0049,303.502 115.5,304.5 Z"/></g>
</svg>
