<?xml version="1.0" encoding="UTF-8"?>
<!DOCTYPE svg PUBLIC "-//W3C//DTD SVG 1.1//EN" "http://www.w3.org/Graphics/SVG/1.1/DTD/svg11.dtd">
<svg xmlns="http://www.w3.org/2000/svg" version="1.1" width="21617px" height="3515px" style="shape-rendering:geometricPrecision; text-rendering:geometricPrecision; image-rendering:optimizeQuality; fill-rule:evenodd; clip-rule:evenodd" xmlns:xlink="http://www.w3.org/1999/xlink">
<g><path style="opacity:0.999" fill="#6a58ff" d="M 0.5,53.5 C 562.506,53.0129 1124.51,53.5129 1686.5,55C 1865.76,60.7041 2042.1,86.3707 2215.5,132C 2446.08,193.633 2656.08,295.633 2845.5,438C 3059.39,604.594 3219.22,812.76 3325,1062.5C 3387.05,1217.7 3424.72,1378.7 3438,1545.5C 3454.36,1732.55 3444.69,1918.21 3409,2102.5C 3341.71,2426.03 3187.88,2699.53 2947.5,2923C 2789.91,3064.31 2611.58,3173.31 2412.5,3250C 2226.03,3320.76 2033.37,3364.76 1834.5,3382C 1803.55,3385.01 1772.55,3387.18 1741.5,3388.5C 1741.5,3133.83 1741.5,2879.17 1741.5,2624.5C 1864.33,2607.73 1979.33,2568.56 2086.5,2507C 2266.97,2397.14 2387.47,2240.64 2448,2037.5C 2479.98,1923.7 2493.98,1807.7 2490,1689.5C 2488.39,1577.87 2469.73,1469.2 2434,1363.5C 2355.11,1148.61 2211.28,994.11 2002.5,900C 1906.59,856.605 1806.26,828.938 1701.5,817C 1657.98,811.801 1614.32,808.801 1570.5,808C 1362.17,807.5 1153.83,807.333 945.5,807.5C 945.5,1417.83 945.5,2028.17 945.5,2638.5C 1107.83,2638.5 1270.17,2638.5 1432.5,2638.5C 1432.5,2890.17 1432.5,3141.83 1432.5,3393.5C 955.167,3393.5 477.833,3393.5 0.5,3393.5C 0.5,2280.17 0.5,1166.83 0.5,53.5 Z"/></g>
<g><path style="opacity:0.997" fill="#6a58ff" d="M 7371.5,308.5 C 7413.25,305.469 7453.92,310.635 7493.5,324C 7535.36,340.209 7568.53,367.043 7593,404.5C 7617.67,452.201 7622.34,501.868 7607,553.5C 7584.24,618.596 7539.74,660.763 7473.5,680C 7426.73,691.444 7379.73,692.444 7332.5,683C 7268.11,668.25 7221.27,631.417 7192,572.5C 7173.05,524.306 7172.72,475.972 7191,427.5C 7220.6,366.258 7268.76,328.425 7335.5,314C 7347.57,311.662 7359.57,309.828 7371.5,308.5 Z"/></g>
<g><path style="opacity:0.997" fill="#6a58ff" d="M 13495.5,308.5 C 13537.3,305.469 13577.9,310.635 13617.5,324C 13659.4,340.209 13692.5,367.043 13717,404.5C 13736.7,440.803 13743.7,479.47 13738,520.5C 13727.5,588.3 13691.7,637.467 13630.5,668C 13588.9,685.512 13545.6,692.512 13500.5,689C 13432.2,686.392 13377,658.559 13335,605.5C 13305.1,561.814 13295.1,513.814 13305,461.5C 13317.3,407.142 13347.4,365.976 13395.5,338C 13426.8,321.004 13460.2,311.17 13495.5,308.5 Z"/></g>
<g><path style="opacity:0.997" fill="#000000" d="M 19855.5,1688.5 C 19848.4,1696.54 19841.4,1704.04 19834.5,1711C 19833.5,1711.33 19832.5,1711.67 19831.5,1712C 19828.5,1714.65 19825.9,1717.65 19823.5,1721C 19819.8,1723.78 19815.8,1726.94 19811.5,1730.5C 19803,1737.89 19793.3,1745.39 19782.5,1753C 19753.5,1770.68 19723.5,1786.68 19692.5,1801C 19599.3,1838.43 19503,1849.76 19403.5,1835C 19345.4,1827.2 19292.1,1807.2 19243.5,1775C 19223.5,1759.96 19205,1743.12 19188,1724.5C 19187.5,1757.5 19187.3,1790.5 19187.5,1823.5C 19073.5,1823.5 18959.5,1823.5 18845.5,1823.5C 18845.5,1357.17 18845.5,890.833 18845.5,424.5C 18965.1,424.168 19084.6,424.501 19204,425.5C 19204.3,580.167 19204.7,734.833 19205,889.5C 19247.4,847.391 19297.5,818.224 19355.5,802C 19451.9,777.508 19547.9,779.175 19643.5,807C 19790.7,854.841 19893.5,950.341 19952,1093.5C 19982,1174.84 19994.3,1258.84 19989,1345.5C 19986.5,1427.9 19966.8,1505.9 19930,1579.5C 19919.7,1597.83 19909.3,1616.17 19899,1634.5C 19892.3,1643.85 19885.6,1653.19 19879,1662.5C 19870.9,1671.06 19863.1,1679.73 19855.5,1688.5 Z M 19393.5,1070.5 C 19461.5,1065.53 19519,1087.2 19566,1135.5C 19608.1,1186.09 19628.6,1244.59 19627.5,1311C 19628.4,1371.27 19611.9,1426.11 19578,1475.5C 19540.1,1523.86 19490.3,1550.36 19428.5,1555C 19331.3,1559.16 19261.8,1517.66 19220,1430.5C 19202.5,1384.77 19195.5,1337.44 19199,1288.5C 19201,1220.01 19227.2,1162.84 19277.5,1117C 19311.4,1089.65 19350,1074.15 19393.5,1070.5 Z"/></g>
<g><path style="opacity:0.999" fill="#6a58ff" d="M 5677.5,504.5 C 5901.17,504.333 6124.83,504.5 6348.5,505C 6461.01,508.379 6568.67,532.713 6671.5,578C 6814.19,643.019 6918.69,746.519 6985,888.5C 7022.07,976.515 7039.9,1068.35 7038.5,1164C 7039.72,1255.86 7023.22,1344.36 6989,1429.5C 6926.91,1570.26 6826.74,1674.43 6688.5,1742C 6592,1787.88 6490.33,1814.21 6383.5,1821C 6371.84,1821.83 6360.18,1822.5 6348.5,1823C 6124.83,1823.5 5901.17,1823.67 5677.5,1823.5C 5677.5,1383.83 5677.5,944.167 5677.5,504.5 Z M 6051.5,802.5 C 6136.5,802.333 6221.5,802.5 6306.5,803C 6394.29,804.373 6472.96,831.373 6542.5,884C 6598.06,930.9 6633.89,990.067 6650,1061.5C 6660.8,1113.4 6663.47,1165.73 6658,1218.5C 6649.4,1308.53 6611.57,1383.37 6544.5,1443C 6489.58,1486.89 6426.91,1512.89 6356.5,1521C 6339.89,1523.05 6323.22,1524.38 6306.5,1525C 6221.5,1525.5 6136.5,1525.67 6051.5,1525.5C 6051.5,1284.5 6051.5,1043.5 6051.5,802.5 Z"/></g>
<g><path style="opacity:0.998" fill="#000000" d="M 16515.5,504.5 C 16640.2,504.5 16764.8,504.5 16889.5,504.5C 16889.5,845.5 16889.5,1186.5 16889.5,1527.5C 17099.5,1527.5 17309.5,1527.5 17519.5,1527.5C 17519.5,1626.17 17519.5,1724.83 17519.5,1823.5C 17184.8,1823.5 16850.2,1823.5 16515.5,1823.5C 16515.5,1383.83 16515.5,944.167 16515.5,504.5 Z"/></g>
<g><path style="opacity:0.999" fill="#6a58ff" d="M 8807.5,918.5 C 8811.44,916.234 8814.77,913.234 8817.5,909.5C 8881.05,848.053 8956.72,809.22 9044.5,793C 9123.01,779.16 9200.68,782.826 9277.5,804C 9405.4,843.57 9488.9,927.403 9528,1055.5C 9541.82,1104.2 9549.48,1153.87 9551,1204.5C 9551.5,1410.83 9551.67,1617.17 9551.5,1823.5C 9431.83,1823.5 9312.17,1823.5 9192.5,1823.5C 9192.67,1638.83 9192.5,1454.17 9192,1269.5C 9191.12,1230 9181.79,1192.67 9164,1157.5C 9135.24,1111.2 9093.41,1088.53 9038.5,1089.5C 8960.35,1090.63 8906.85,1127.29 8878,1199.5C 8867.97,1227.64 8862.31,1256.64 8861,1286.5C 8860.5,1465.5 8860.33,1644.5 8860.5,1823.5C 8740.83,1823.5 8621.17,1823.5 8501.5,1823.5C 8501.67,1643.17 8501.5,1462.83 8501,1282.5C 8500.64,1249 8495.31,1216.34 8485,1184.5C 8460.63,1121.22 8414.46,1089.55 8346.5,1089.5C 8279.21,1088.88 8229.04,1117.54 8196,1175.5C 8181.9,1202.14 8173.23,1230.47 8170,1260.5C 8168.46,1273.12 8167.46,1285.79 8167,1298.5C 8166.5,1473.5 8166.33,1648.5 8166.5,1823.5C 8047.17,1823.5 7927.83,1823.5 7808.5,1823.5C 7808.5,1483.17 7808.5,1142.83 7808.5,802.5C 7922.17,802.5 8035.83,802.5 8149.5,802.5C 8149.33,837.502 8149.5,872.502 8150,907.5C 8221.25,837.042 8307.08,796.875 8407.5,787C 8485.82,778.95 8561.15,790.283 8633.5,821C 8677.29,840.812 8716.12,867.645 8750,901.5C 8762.13,915.109 8773.3,929.442 8783.5,944.5C 8791.13,935.539 8799.13,926.872 8807.5,918.5 Z"/></g>
<g><path style="opacity:0.998" fill="#6a58ff" d="M 10269.5,784.5 C 10393.3,780.624 10508,810.79 10613.5,875C 10733.5,955.497 10804.7,1067.66 10827,1211.5C 10836.2,1274.73 10836.9,1338.07 10829,1401.5C 10582,1403.5 10334.9,1404.17 10087.5,1403.5C 10101.8,1456.67 10132.2,1498.17 10178.5,1528C 10219.3,1551.53 10263.3,1564.2 10310.5,1566C 10353.4,1568.72 10395.7,1565.05 10437.5,1555C 10487.5,1539.18 10531.8,1513.85 10570.5,1479C 10571.5,1478.33 10572.5,1478.33 10573.5,1479C 10636,1544.02 10698.3,1609.18 10760.5,1674.5C 10716.6,1723.58 10664.6,1761.74 10604.5,1789C 10542.9,1815.79 10478.6,1831.79 10411.5,1837C 10332.4,1844.14 10253.8,1841.14 10175.5,1828C 10037.9,1803.81 9924.07,1738.98 9834,1633.5C 9769.47,1551.63 9733.8,1458.3 9727,1353.5C 9720.11,1264.16 9733.78,1178.16 9768,1095.5C 9820.25,981.92 9902.75,898.087 10015.5,844C 10096,806.2 10180.7,786.366 10269.5,784.5 Z M 10266.5,1040.5 C 10337.8,1033.76 10398.3,1055.76 10448,1106.5C 10474.8,1137.69 10491.6,1173.69 10498.5,1214.5C 10359.5,1214.83 10220.5,1214.5 10081.5,1213.5C 10090.6,1163.53 10113.6,1121.36 10150.5,1087C 10184.4,1059.65 10223,1044.15 10266.5,1040.5 Z"/></g>
<g><path style="opacity:0.998" fill="#6a58ff" d="M 11648.5,784.5 C 11741.1,781.399 11827.4,802.899 11907.5,849C 11971.3,890.451 12018.1,946.284 12048,1016.5C 12071.7,1076.19 12084.3,1138.19 12086,1202.5C 12086.5,1409.5 12086.7,1616.5 12086.5,1823.5C 11966.8,1823.5 11847.2,1823.5 11727.5,1823.5C 11727.7,1638.5 11727.5,1453.5 11727,1268.5C 11725.6,1230.7 11716.3,1195.03 11699,1161.5C 11666.5,1111.84 11620.4,1087.84 11560.5,1089.5C 11443.5,1095.29 11377,1156.29 11361,1272.5C 11359.5,1284.46 11358.5,1296.46 11358,1308.5C 11357.5,1480.17 11357.3,1651.83 11357.5,1823.5C 11237.8,1823.5 11118.2,1823.5 10998.5,1823.5C 10998.5,1482.83 10998.5,1142.17 10998.5,801.5C 11112.5,801.5 11226.5,801.5 11340.5,801.5C 11340.3,838.502 11340.5,875.502 11341,912.5C 11390.4,862.386 11448.9,826.886 11516.5,806C 11559.7,793.092 11603.7,785.925 11648.5,784.5 Z"/></g>
<g><path style="opacity:0.998" fill="#6a58ff" d="M 12726.5,784.5 C 12829.2,783.459 12930.2,795.959 13029.5,822C 13072.2,833.235 13112.7,849.735 13151,871.5C 13116.3,953.156 13080.7,1034.49 13044,1115.5C 12976.3,1076.59 12903.4,1053.09 12825.5,1045C 12775.2,1039.03 12724.8,1039.03 12674.5,1045C 12650.2,1047.65 12628.2,1055.98 12608.5,1070C 12583.7,1091.22 12580.2,1115.39 12598,1142.5C 12607.8,1152.32 12619.3,1159.49 12632.5,1164C 12653,1171.38 12674,1177.05 12695.5,1181C 12753.2,1189.33 12810.8,1197.67 12868.5,1206C 12913.6,1213.28 12957.6,1224.61 13000.5,1240C 13037.8,1254.81 13072.1,1274.47 13103.5,1299C 13156.5,1346.81 13184.3,1406.64 13187,1478.5C 13192.7,1546.19 13176.3,1607.86 13138,1663.5C 13112.3,1700.22 13080.4,1730.39 13042.5,1754C 12977.8,1793.57 12907.8,1818.9 12832.5,1830C 12662.4,1853.87 12496.1,1838.21 12333.5,1783C 12297.1,1770.3 12262.4,1754.14 12229.5,1734.5C 12265.5,1652.82 12301.5,1571.16 12337.5,1489.5C 12437.7,1547.06 12545.7,1578.22 12661.5,1583C 12692.5,1584.06 12723.5,1583.39 12754.5,1581C 12780.2,1579.58 12804.2,1572.58 12826.5,1560C 12852.1,1542.73 12859,1519.9 12847,1491.5C 12843.5,1486.67 12839.3,1482.5 12834.5,1479C 12808.7,1465.41 12781.4,1456.41 12752.5,1452C 12700.5,1444.43 12648.5,1436.76 12596.5,1429C 12552.7,1422.17 12509.4,1413.17 12466.5,1402C 12424.9,1389.54 12386.3,1371.21 12350.5,1347C 12287,1296.45 12253.8,1230.28 12251,1148.5C 12245.2,1035.53 12288.1,946.366 12379.5,881C 12448.6,835.629 12524.2,806.962 12606.5,795C 12646.5,789.172 12686.5,785.672 12726.5,784.5 Z"/></g>
<g><path style="opacity:0.998" fill="#6a58ff" d="M 14426.5,784.5 C 14519.7,781.758 14609.7,797.258 14696.5,831C 14760.5,856.957 14817.8,892.957 14868.5,939C 14972,1040.83 15023,1164.83 15021.5,1311C 15023,1445.97 14979.1,1563.47 14890,1663.5C 14797.9,1757.14 14686.4,1813.64 14555.5,1833C 14455.4,1847.64 14356.4,1842.31 14258.5,1817C 14131.6,1781.54 14029.8,1710.7 13953,1604.5C 13902.3,1527.58 13874.3,1442.92 13869,1350.5C 13862.8,1264.44 13875.8,1181.44 13908,1101.5C 13955.1,996.374 14029.3,916.208 14130.5,861C 14223,811.383 14321.6,785.883 14426.5,784.5 Z M 14425.5,1070.5 C 14494,1064.61 14552.2,1086.28 14600,1135.5C 14632.8,1174.09 14651.8,1218.76 14657,1269.5C 14663.2,1322.5 14657.5,1374.17 14640,1424.5C 14603.6,1509.9 14538.6,1553.57 14445,1555.5C 14355.6,1553.69 14291.6,1512.69 14253,1432.5C 14235.1,1386.86 14227.7,1339.52 14231,1290.5C 14232.5,1221.8 14258.4,1164.3 14308.5,1118C 14342.5,1090 14381.5,1074.17 14425.5,1070.5 Z"/></g>
<g><path style="opacity:0.999" fill="#6a58ff" d="M 15187.5,1823.5 C 15187.5,1483.17 15187.5,1142.83 15187.5,802.5C 15301.2,802.5 15414.8,802.5 15528.5,802.5C 15528.3,839.168 15528.5,875.835 15529,912.5C 15582,858.885 15645.2,822.052 15718.5,802C 15812.5,777.647 15906.2,778.98 15999.5,806C 16063,824.963 16117.8,857.796 16164,904.5C 16222.4,969.992 16257.1,1046.66 16268,1134.5C 16270.9,1155.75 16272.9,1177.08 16274,1198.5C 16274.5,1406.83 16274.7,1615.17 16274.5,1823.5C 16155.2,1823.5 16035.8,1823.5 15916.5,1823.5C 15916.7,1645.17 15916.5,1466.83 15916,1288.5C 15916,1255.38 15911,1223.04 15901,1191.5C 15873.8,1122.89 15823.2,1088.89 15749,1089.5C 15630.8,1095.31 15564.2,1156.98 15549,1274.5C 15547.4,1287.45 15546.4,1300.45 15546,1313.5C 15545.5,1483.5 15545.3,1653.5 15545.5,1823.5C 15426.2,1823.5 15306.8,1823.5 15187.5,1823.5 Z"/></g>
<g><path style="opacity:0.997" fill="#000000" d="M 18078.5,784.5 C 18158.2,782.467 18236.5,791.634 18313.5,812C 18397.2,835.087 18468.1,878.587 18526,942.5C 18571.7,1000.69 18600.1,1066.69 18611,1140.5C 18614.2,1160.06 18616.6,1179.73 18618,1199.5C 18619.5,1407.49 18620,1615.49 18619.5,1823.5C 18508.2,1823.5 18396.8,1823.5 18285.5,1823.5C 18285.7,1780.5 18285.5,1737.5 18285,1694.5C 18250.6,1756.92 18199.2,1798.92 18131,1820.5C 18094.3,1831.8 18056.8,1838.3 18018.5,1840C 17955.4,1843.93 17893.4,1837.6 17832.5,1821C 17762.1,1800.42 17704.3,1761.58 17659,1704.5C 17617.5,1644.77 17599.2,1578.44 17604,1505.5C 17611.6,1394.73 17665.8,1316.56 17766.5,1271C 17825.3,1245.64 17886.6,1230.31 17950.5,1225C 17970.1,1223.18 17989.8,1221.85 18009.5,1221C 18093.2,1220.5 18176.8,1220.33 18260.5,1220.5C 18255.2,1144.08 18216.2,1094.25 18143.5,1071C 18111.2,1062.6 18078.4,1058.43 18045,1058.5C 17959.3,1060.73 17878.8,1082.23 17803.5,1123C 17791.4,1130.78 17779.6,1138.94 17768,1147.5C 17727.4,1066.41 17686.9,985.244 17646.5,904C 17703.6,867.794 17764.9,840.794 17830.5,823C 17911.7,799.851 17994.4,787.018 18078.5,784.5 Z M 18085.5,1407.5 C 18144.2,1407.5 18202.8,1407.5 18261.5,1407.5C 18261.7,1436.84 18261.5,1466.17 18261,1495.5C 18236.2,1560.63 18189.4,1599.13 18120.5,1611C 18084.4,1616.78 18049,1613.78 18014.5,1602C 17965.3,1580.42 17944.8,1542.92 17953,1489.5C 17962.2,1451.59 17985.7,1427.42 18023.5,1417C 18044,1411.86 18064.7,1408.69 18085.5,1407.5 Z"/></g>
<g><path style="opacity:0.996" fill="#000000" d="M 20571.5,784.5 C 20672.8,783.475 20772.4,795.642 20870.5,821C 20914.6,832.447 20956.4,849.28 20996,871.5C 20961,953.104 20925.2,1034.44 20888.5,1115.5C 20821,1076.49 20748.3,1052.99 20670.5,1045C 20622.5,1039.44 20574.5,1039.11 20526.5,1044C 20500.8,1046.24 20477.1,1054.24 20455.5,1068C 20429.6,1088.04 20424.8,1112.2 20441,1140.5C 20452.3,1152.93 20466.2,1161.43 20482.5,1166C 20503.1,1172.74 20524.1,1178.08 20545.5,1182C 20605.2,1190.39 20664.9,1199.05 20724.5,1208C 20767.5,1215.59 20809.5,1226.93 20850.5,1242C 20887.2,1257.19 20920.9,1277.19 20951.5,1302C 21004.3,1351.46 21031.1,1412.63 21032,1485.5C 21036,1564.52 21012,1633.52 20960,1692.5C 20922.3,1732.62 20878.1,1763.78 20827.5,1786C 20767.8,1812.17 20705.5,1828.51 20640.5,1835C 20480.5,1851.66 20324.5,1833.66 20172.5,1781C 20142.6,1769.93 20113.6,1756.93 20085.5,1742C 20081.4,1739.98 20077.8,1737.48 20074.5,1734.5C 20110.1,1652.63 20146.1,1570.97 20182.5,1489.5C 20262.5,1535.89 20348.5,1565.06 20440.5,1577C 20496.1,1584.37 20551.7,1585.37 20607.5,1580C 20629.6,1577.99 20650.2,1571.66 20669.5,1561C 20696.8,1543.64 20704,1520.14 20691,1490.5C 20687.2,1485.54 20682.7,1481.37 20677.5,1478C 20652.3,1464.94 20625.7,1456.27 20597.5,1452C 20547.5,1444.67 20497.5,1437.33 20447.5,1430C 20408.9,1423.82 20370.6,1416.49 20332.5,1408C 20290.3,1396.94 20250.3,1380.6 20212.5,1359C 20140,1310.46 20101.1,1242.29 20096,1154.5C 20088,1038.39 20131.1,946.892 20225.5,880C 20294.5,835.338 20369.8,807.005 20451.5,795C 20491.4,789.078 20531.4,785.578 20571.5,784.5 Z"/></g>
<g><path style="opacity:1" fill="#6a58ff" d="M 7217.5,801.5 C 7336.83,801.5 7456.17,801.5 7575.5,801.5C 7575.5,1142.17 7575.5,1482.83 7575.5,1823.5C 7456.17,1823.5 7336.83,1823.5 7217.5,1823.5C 7217.5,1482.83 7217.5,1142.17 7217.5,801.5 Z"/></g>
<g><path style="opacity:0.251" fill="#6b57ff" d="M 8149.5,802.5 C 8035.83,802.5 7922.17,802.5 7808.5,802.5C 7808.5,1142.83 7808.5,1483.17 7808.5,1823.5C 7807.5,1483 7807.17,1142.33 7807.5,801.5C 7921.67,801.167 8035.67,801.5 8149.5,802.5 Z"/></g>
<g><path style="opacity:1" fill="#6a59ff" d="M 13341.5,801.5 C 13461.2,801.5 13580.8,801.5 13700.5,801.5C 13700.5,1142.17 13700.5,1482.83 13700.5,1823.5C 13580.8,1823.5 13461.2,1823.5 13341.5,1823.5C 13341.5,1482.83 13341.5,1142.17 13341.5,801.5 Z"/></g>
<g><path style="opacity:0.251" fill="#6c57ff" d="M 15528.5,802.5 C 15414.8,802.5 15301.2,802.5 15187.5,802.5C 15187.5,1142.83 15187.5,1483.17 15187.5,1823.5C 15186.5,1483 15186.2,1142.33 15186.5,801.5C 15300.7,801.167 15414.7,801.5 15528.5,802.5 Z"/></g>
<g><path style="opacity:0.812" fill="#6c56ff" d="M 8817.5,909.5 C 8814.77,913.234 8811.44,916.234 8807.5,918.5C 8810.23,914.766 8813.56,911.766 8817.5,909.5 Z"/></g>
<g><path style="opacity:0.995" fill="#000000" d="M 21314.5,1416.5 C 21401.2,1409.64 21470,1440.97 21521,1510.5C 21542.5,1546.26 21553,1585.1 21552.5,1627C 21550.9,1713.8 21512.3,1777.8 21436.5,1819C 21387,1841.35 21335.7,1846.68 21282.5,1835C 21224.6,1820.1 21180.1,1787.27 21149,1736.5C 21126.1,1693.94 21117.5,1648.61 21123,1600.5C 21130.6,1530.12 21165.1,1477.62 21226.5,1443C 21254.2,1428.25 21283.5,1419.42 21314.5,1416.5 Z"/></g>
<g><path style="opacity:0.063" fill="#000000" d="M 19855.5,1688.5 C 19856.8,1689.17 19856.8,1689.17 19855.5,1688.5 Z"/></g>
<g><path style="opacity:0.063" fill="#000000" d="M 19811.5,1730.5 C 19812.8,1731.17 19812.8,1731.17 19811.5,1730.5 Z"/></g>
<g><path style="opacity:0.998" fill="#000000" d="M 4212.5,2376.5 C 4382.12,2373.59 4523.95,2434.26 4638,2558.5C 4745.98,2686.02 4788.32,2833.02 4765,2999.5C 4739.52,3142.16 4669.68,3257.32 4555.5,3345C 4435.44,3431.43 4301.78,3464.76 4154.5,3445C 3992.46,3417.17 3866.96,3334.67 3778,3197.5C 3699.4,3065.96 3678.4,2925.63 3715,2776.5C 3749.46,2652 3818.62,2551.83 3922.5,2476C 4009.51,2415.05 4106.17,2381.89 4212.5,2376.5 Z"/></g>
<g><path style="opacity:0.983" fill="#000000" d="M 9348.5,2618.5 C 9379.27,2614.96 9401.43,2626.96 9415,2654.5C 9421.98,2679.87 9415.82,2701.37 9396.5,2719C 9372.73,2733.9 9348.73,2734.23 9324.5,2720C 9302.9,2702.44 9296.4,2680.27 9305,2653.5C 9313.41,2634.25 9327.91,2622.59 9348.5,2618.5 Z"/></g>
<g><path style="opacity:0.984" fill="#000000" d="M 10807.5,2618.5 C 10836.8,2615.06 10858.6,2626.06 10873,2651.5C 10882.5,2681.21 10874.7,2705.04 10849.5,2723C 10824.4,2734.4 10800.7,2732.07 10778.5,2716C 10758.3,2694.2 10755.2,2670.03 10769,2643.5C 10778.3,2629.76 10791.1,2621.43 10807.5,2618.5 Z"/></g>
<g><path style="opacity:0.983" fill="#000000" d="M 13114.5,2618.5 C 13147.4,2614.83 13169.9,2628.16 13182,2658.5C 13187,2681.93 13180.9,2701.76 13163.5,2718C 13140.1,2733.28 13116.1,2734.28 13091.5,2721C 13072.5,2706.89 13064.7,2688.06 13068,2664.5C 13073.4,2638.9 13088.9,2623.57 13114.5,2618.5 Z"/></g>
<g><path style="opacity:0.983" fill="#000000" d="M 17241.5,2618.5 C 17266.6,2615.25 17286.8,2623.59 17302,2643.5C 17313.3,2663.75 17313.3,2684.09 17302,2704.5C 17290,2721.83 17273.3,2730.5 17252,2730.5C 17224.4,2729.51 17205.7,2716.17 17196,2690.5C 17189.3,2652.25 17204.4,2628.25 17241.5,2618.5 Z"/></g>
<g><path style="opacity:0.983" fill="#000000" d="M 20021.5,2618.5 C 20054.3,2614.82 20076.8,2628.16 20089,2658.5C 20094.8,2686.8 20085.6,2708.63 20061.5,2724C 20037.5,2734.03 20014.8,2731.7 19993.5,2717C 19975.1,2699.17 19970,2678.01 19978,2653.5C 19986.4,2634.25 20000.9,2622.59 20021.5,2618.5 Z"/></g>
<g><path style="opacity:0.984" fill="#000000" d="M 13478.5,2626.5 C 13511.7,2623.86 13543.7,2628.7 13574.5,2641C 13582,2644.58 13589,2648.91 13595.5,2654C 13586.8,2675.87 13578,2697.71 13569,2719.5C 13538.6,2697.45 13505.5,2691.95 13469.5,2703C 13443.4,2715.48 13429.6,2736.31 13428,2765.5C 13427.5,2783.5 13427.3,2801.5 13427.5,2819.5C 13473.2,2819.5 13518.8,2819.5 13564.5,2819.5C 13564.5,2843.17 13564.5,2866.83 13564.5,2890.5C 13519.5,2890.5 13474.5,2890.5 13429.5,2890.5C 13429.5,3024.17 13429.5,3157.83 13429.5,3291.5C 13400.5,3291.5 13371.5,3291.5 13342.5,3291.5C 13342.5,3157.83 13342.5,3024.17 13342.5,2890.5C 13316.2,2890.5 13289.8,2890.5 13263.5,2890.5C 13263.5,2866.83 13263.5,2843.17 13263.5,2819.5C 13289.8,2819.5 13316.2,2819.5 13342.5,2819.5C 13341.8,2793.74 13343,2768.07 13346,2742.5C 13356.6,2686.53 13389.1,2650.03 13443.5,2633C 13455.2,2630.17 13466.9,2628 13478.5,2626.5 Z"/></g>
<g><path style="opacity:0.989" fill="#000000" d="M 13792.5,2626.5 C 13824.1,2624.14 13854.7,2628.3 13884.5,2639C 13893.8,2642.66 13902.2,2647.83 13909.5,2654.5C 13900.6,2676.2 13891.8,2697.86 13883,2719.5C 13852.6,2697.45 13819.5,2691.95 13783.5,2703C 13757.4,2715.48 13743.6,2736.31 13742,2765.5C 13741.5,2783.5 13741.3,2801.5 13741.5,2819.5C 13787.2,2819.5 13832.8,2819.5 13878.5,2819.5C 13878.5,2843.17 13878.5,2866.83 13878.5,2890.5C 13833.5,2890.5 13788.5,2890.5 13743.5,2890.5C 13743.5,3024.17 13743.5,3157.83 13743.5,3291.5C 13714.8,3291.5 13686.2,3291.5 13657.5,3291.5C 13657.5,3157.83 13657.5,3024.17 13657.5,2890.5C 13630.8,2890.5 13604.2,2890.5 13577.5,2890.5C 13577.5,2866.83 13577.5,2843.17 13577.5,2819.5C 13604.2,2819.5 13630.8,2819.5 13657.5,2819.5C 13657.3,2798.83 13657.5,2778.16 13658,2757.5C 13664.2,2694.27 13697.4,2652.77 13757.5,2633C 13769.2,2630.17 13780.9,2628 13792.5,2626.5 Z"/></g>
<g><path style="opacity:0.99" fill="#000000" d="M 12835.5,2631.5 C 12864.2,2631.5 12892.8,2631.5 12921.5,2631.5C 12921.5,2851.5 12921.5,3071.5 12921.5,3291.5C 12894.2,3291.5 12866.8,3291.5 12839.5,3291.5C 12839.7,3267.16 12839.5,3242.83 12839,3218.5C 12806.7,3261.23 12763.9,3286.4 12710.5,3294C 12653,3302.48 12598.7,3293.15 12547.5,3266C 12481.1,3225.15 12443.6,3165.65 12435,3087.5C 12426,3014.77 12444.4,2950.1 12490,2893.5C 12530.2,2848.82 12580.4,2823.32 12640.5,2817C 12691.1,2810.6 12738.8,2819.6 12783.5,2844C 12803.4,2856.03 12820.5,2871.2 12835,2889.5C 12835.5,2803.5 12835.7,2717.5 12835.5,2631.5 Z M 12672.5,2890.5 C 12719.4,2889.4 12759.6,2905.07 12793,2937.5C 12830.3,2981.49 12844,3032.16 12834,3089.5C 12821.3,3158.2 12781.1,3201.03 12713.5,3218C 12665.4,3227.31 12621.4,3217.98 12581.5,3190C 12540.2,3154.93 12519.9,3110.09 12520.5,3055.5C 12519.8,2998.13 12542.1,2952.3 12587.5,2918C 12613.4,2901.09 12641.7,2891.92 12672.5,2890.5 Z"/></g>
<g><path style="opacity:0.989" fill="#000000" d="M 16962.5,2631.5 C 16991.2,2631.5 17019.8,2631.5 17048.5,2631.5C 17048.5,2851.5 17048.5,3071.5 17048.5,3291.5C 17021.2,3291.5 16993.8,3291.5 16966.5,3291.5C 16966.7,3267.16 16966.5,3242.83 16966,3218.5C 16933.8,3261.22 16890.9,3286.39 16837.5,3294C 16779.2,3302.57 16724.2,3292.9 16672.5,3265C 16608.2,3224.61 16571.4,3166.44 16562,3090.5C 16556,3040.99 16562.6,2993.32 16582,2947.5C 16620.3,2870.97 16682.1,2827.47 16767.5,2817C 16819.5,2810.55 16868.1,2820.21 16913.5,2846C 16931.9,2858.02 16948,2872.52 16962,2889.5C 16962.5,2803.5 16962.7,2717.5 16962.5,2631.5 Z M 16795.5,2890.5 C 16837.7,2888.72 16875.3,2900.89 16908.5,2927C 16942.1,2958.08 16960.3,2996.58 16963,3042.5C 16967.6,3094.6 16951.8,3140.1 16915.5,3179C 16877.9,3212.54 16833.9,3226.21 16783.5,3220C 16717.5,3209.34 16674.3,3172.17 16654,3108.5C 16645.1,3072.07 16645.4,3035.74 16655,2999.5C 16678.9,2933.47 16725.8,2897.13 16795.5,2890.5 Z"/></g>
<g><path style="opacity:0.989" fill="#000000" d="M 5638.5,2668.5 C 5785.17,2668.5 5931.83,2668.5 6078.5,2668.5C 6078.5,2694.5 6078.5,2720.5 6078.5,2746.5C 5961.83,2746.5 5845.17,2746.5 5728.5,2746.5C 5728.5,2810.17 5728.5,2873.83 5728.5,2937.5C 5832.5,2937.5 5936.5,2937.5 6040.5,2937.5C 6040.5,2962.83 6040.5,2988.17 6040.5,3013.5C 5936.5,3013.5 5832.5,3013.5 5728.5,3013.5C 5728.5,3080.17 5728.5,3146.83 5728.5,3213.5C 5849.17,3213.5 5969.83,3213.5 6090.5,3213.5C 6090.5,3239.5 6090.5,3265.5 6090.5,3291.5C 5939.83,3291.5 5789.17,3291.5 5638.5,3291.5C 5638.5,3083.83 5638.5,2876.17 5638.5,2668.5 Z"/></g>
<g><path style="opacity:0.988" fill="#000000" d="M 10181.5,2716.5 C 10210.2,2716.5 10238.8,2716.5 10267.5,2716.5C 10267.5,2750.83 10267.5,2785.17 10267.5,2819.5C 10312.5,2819.5 10357.5,2819.5 10402.5,2819.5C 10402.5,2843.17 10402.5,2866.83 10402.5,2890.5C 10357.5,2890.5 10312.5,2890.5 10267.5,2890.5C 10267.5,2979.01 10267.5,3067.34 10267.5,3155.5C 10271.3,3200.46 10296.1,3223.46 10342,3224.5C 10366.8,3224.55 10388.8,3216.89 10408,3201.5C 10417,3221.94 10425.8,3242.44 10434.5,3263C 10426,3271.62 10416,3278.29 10404.5,3283C 10365.4,3297.51 10325.4,3300.51 10284.5,3292C 10229.1,3278.31 10196,3243.47 10185,3187.5C 10183.3,3178.24 10182.3,3168.9 10182,3159.5C 10181.5,3069.83 10181.3,2980.17 10181.5,2890.5C 10154.8,2890.5 10128.2,2890.5 10101.5,2890.5C 10101.5,2866.83 10101.5,2843.17 10101.5,2819.5C 10128.2,2819.5 10154.8,2819.5 10181.5,2819.5C 10181.5,2785.17 10181.5,2750.83 10181.5,2716.5 Z"/></g>
<g><path style="opacity:0.988" fill="#000000" d="M 16009.5,2716.5 C 16038.2,2716.5 16066.8,2716.5 16095.5,2716.5C 16095.5,2750.83 16095.5,2785.17 16095.5,2819.5C 16140.5,2819.5 16185.5,2819.5 16230.5,2819.5C 16230.5,2843.17 16230.5,2866.83 16230.5,2890.5C 16185.5,2890.5 16140.5,2890.5 16095.5,2890.5C 16095.3,2977.5 16095.5,3064.5 16096,3151.5C 16097.7,3198.53 16122,3222.86 16169,3224.5C 16194,3224.38 16216.4,3216.71 16236,3201.5C 16245,3221.94 16253.8,3242.44 16262.5,3263C 16257.3,3268.61 16251.3,3273.27 16244.5,3277C 16215.8,3291.64 16185.3,3298.14 16153,3296.5C 16098.6,3299.49 16057,3277.83 16028,3231.5C 16016.7,3209.56 16010.7,3186.22 16010,3161.5C 16009.5,3071.17 16009.3,2980.83 16009.5,2890.5C 15982.8,2890.5 15956.2,2890.5 15929.5,2890.5C 15929.5,2866.83 15929.5,2843.17 15929.5,2819.5C 15956.2,2819.5 15982.8,2819.5 16009.5,2819.5C 16009.5,2785.17 16009.5,2750.83 16009.5,2716.5 Z"/></g>
<g><path style="opacity:0.987" fill="#000000" d="M 6871.5,2815.5 C 6929.57,2811.43 6982.57,2825.6 7030.5,2858C 7078.97,2895.89 7108.47,2945.39 7119,3006.5C 7123.22,3032.41 7124.05,3058.41 7121.5,3084.5C 6994.17,3084.5 6866.83,3084.5 6739.5,3084.5C 6748.09,3144.93 6780.76,3186.43 6837.5,3209C 6885.17,3225.64 6932.84,3225.64 6980.5,3209C 7005.57,3199.13 7027.24,3184.3 7045.5,3164.5C 7061.19,3182.35 7076.69,3200.35 7092,3218.5C 7092.67,3219.5 7092.67,3220.5 7092,3221.5C 7057,3259.43 7013.83,3282.93 6962.5,3292C 6902.25,3302.71 6843.92,3296.37 6787.5,3273C 6710.12,3235.59 6665.96,3174.09 6655,3088.5C 6648.27,3033.23 6657.61,2980.89 6683,2931.5C 6725.85,2860.96 6788.68,2822.3 6871.5,2815.5 Z M 6873.5,2888.5 C 6927.96,2883.92 6973.13,2901.92 7009,2942.5C 7027.23,2966.02 7037.73,2992.69 7040.5,3022.5C 6939.83,3022.67 6839.17,3022.5 6738.5,3022C 6751.31,2944.69 6796.31,2900.19 6873.5,2888.5 Z"/></g>
<g><path style="opacity:0.987" fill="#000000" d="M 7473.5,2815.5 C 7480.5,2815.5 7487.5,2815.5 7494.5,2815.5C 7494.5,2843.17 7494.5,2870.83 7494.5,2898.5C 7459.32,2895.08 7425.99,2901.25 7394.5,2917C 7357.9,2939.66 7336.4,2972.5 7330,3015.5C 7328.49,3025.45 7327.49,3035.45 7327,3045.5C 7326.5,3127.5 7326.33,3209.5 7326.5,3291.5C 7297.83,3291.5 7269.17,3291.5 7240.5,3291.5C 7240.5,3134.17 7240.5,2976.83 7240.5,2819.5C 7268.17,2819.5 7295.83,2819.5 7323.5,2819.5C 7323.33,2845.17 7323.5,2870.84 7324,2896.5C 7341.98,2865.42 7367.81,2843.59 7401.5,2831C 7424.9,2822.42 7448.9,2817.26 7473.5,2815.5 Z"/></g>
<g><path style="opacity:0.988" fill="#000000" d="M 8584.5,2815.5 C 8646.46,2811.15 8702.46,2826.98 8752.5,2863C 8812.74,2912.66 8842.41,2976.83 8841.5,3055.5C 8842.47,3129.82 8815.8,3191.98 8761.5,3242C 8706.16,3285.93 8643.16,3303.59 8572.5,3295C 8517.77,3288.56 8473.27,3264.06 8439,3221.5C 8438.5,3302.17 8438.33,3382.83 8438.5,3463.5C 8409.83,3463.5 8381.17,3463.5 8352.5,3463.5C 8352.5,3248.83 8352.5,3034.17 8352.5,2819.5C 8380.17,2819.5 8407.83,2819.5 8435.5,2819.5C 8435.33,2843.84 8435.5,2868.17 8436,2892.5C 8467.19,2851.8 8508.36,2827.3 8559.5,2819C 8567.97,2817.74 8576.3,2816.57 8584.5,2815.5 Z M 8589.5,2890.5 C 8652.56,2889.27 8700.4,2915.27 8733,2968.5C 8752.36,3006.03 8758.7,3045.7 8752,3087.5C 8742.68,3144.13 8712.18,3184.63 8660.5,3209C 8607.03,3229.02 8555.7,3224.68 8506.5,3196C 8469.9,3170.67 8448.06,3135.83 8441,3091.5C 8435.21,3055.71 8438.21,3020.71 8450,2986.5C 8477.23,2926.62 8523.73,2894.62 8589.5,2890.5 Z"/></g>
<g><path style="opacity:0.989" fill="#000000" d="M 9191.5,2815.5 C 9198.5,2815.5 9205.5,2815.5 9212.5,2815.5C 9212.5,2843.17 9212.5,2870.83 9212.5,2898.5C 9176.47,2894.78 9142.47,2901.28 9110.5,2918C 9077.03,2939.18 9056.53,2969.34 9049,3008.5C 9047.01,3018.75 9045.68,3029.08 9045,3039.5C 9044.5,3123.5 9044.33,3207.5 9044.5,3291.5C 9015.83,3291.5 8987.17,3291.5 8958.5,3291.5C 8958.5,3134.17 8958.5,2976.83 8958.5,2819.5C 8985.83,2819.5 9013.17,2819.5 9040.5,2819.5C 9040.33,2845.5 9040.5,2871.5 9041,2897.5C 9058.69,2867.15 9083.86,2845.31 9116.5,2832C 9140.83,2822.84 9165.83,2817.34 9191.5,2815.5 Z"/></g>
<g><path style="opacity:0.988" fill="#000000" d="M 9797.5,2815.5 C 9843.09,2812.1 9886.09,2820.93 9926.5,2842C 9967.95,2867.82 9994.45,2904.66 10006,2952.5C 10009,2966.02 10011,2979.69 10012,2993.5C 10012.5,3092.83 10012.7,3192.17 10012.5,3291.5C 9983.83,3291.5 9955.17,3291.5 9926.5,3291.5C 9926.67,3200.5 9926.5,3109.5 9926,3018.5C 9922.41,2937.24 9880.08,2895.24 9799,2892.5C 9761.1,2891.91 9727.27,2903.08 9697.5,2926C 9674.84,2946.69 9660.67,2972.19 9655,3002.5C 9652.72,3014.73 9651.38,3027.06 9651,3039.5C 9650.5,3123.5 9650.33,3207.5 9650.5,3291.5C 9621.83,3291.5 9593.17,3291.5 9564.5,3291.5C 9564.5,3134.17 9564.5,2976.83 9564.5,2819.5C 9592.17,2819.5 9619.83,2819.5 9647.5,2819.5C 9647.33,2842.5 9647.5,2865.5 9648,2888.5C 9675.85,2853.81 9711.68,2831.64 9755.5,2822C 9769.52,2819.02 9783.52,2816.86 9797.5,2815.5 Z"/></g>
<g><path style="opacity:0.987" fill="#000000" d="M 11154.5,2815.5 C 11209.1,2813.47 11262.1,2821.63 11313.5,2840C 11322,2843.73 11330.3,2847.73 11338.5,2852C 11342.1,2853.65 11345.1,2855.98 11347.5,2859C 11336,2881.88 11323.8,2904.38 11311,2926.5C 11276.9,2904.15 11239.4,2891.98 11198.5,2890C 11183.2,2889.33 11167.8,2889.33 11152.5,2890C 11127.4,2890.92 11104.8,2898.59 11084.5,2913C 11065,2930.21 11059.8,2951.04 11069,2975.5C 11073.1,2984.61 11079.6,2991.44 11088.5,2996C 11108.7,3006.38 11130,3013.38 11152.5,3017C 11189.5,3022.54 11226.2,3029.87 11262.5,3039C 11282.4,3044.62 11301.1,3052.96 11318.5,3064C 11349.4,3086.89 11364.4,3117.73 11363.5,3156.5C 11363.5,3193.29 11349.8,3223.79 11322.5,3248C 11297.5,3268.32 11269.2,3281.99 11237.5,3289C 11158.9,3304.52 11082.6,3297.19 11008.5,3267C 10992.5,3260.35 10977.9,3251.68 10964.5,3241C 10976.1,3218.28 10988.1,3195.78 11000.5,3173.5C 11068.6,3216.02 11142.2,3230.52 11221.5,3217C 11243.7,3213.02 11260.5,3201.52 11272,3182.5C 11284.1,3149.55 11273.9,3126.38 11241.5,3113C 11235.6,3110.6 11229.6,3108.6 11223.5,3107C 11181.5,3099.19 11139.5,3091.19 11097.5,3083C 11071.9,3077.04 11047.9,3067.37 11025.5,3054C 10992.8,3030.55 10977.4,2998.55 10979.5,2958C 10979.6,2913.04 10998,2877.7 11034.5,2852C 11055.7,2838.23 11078.7,2828.56 11103.5,2823C 11120.5,2819.42 11137.5,2816.92 11154.5,2815.5 Z"/></g>
<g><path style="opacity:0.987" fill="#000000" d="M 11857.5,2815.5 C 11892.7,2813.63 11927.4,2817.13 11961.5,2826C 12022.2,2843.66 12060,2883.16 12075,2944.5C 12078.2,2959.34 12080.2,2974.34 12081,2989.5C 12081.5,3090.17 12081.7,3190.83 12081.5,3291.5C 12054.2,3291.5 12026.8,3291.5 11999.5,3291.5C 11999.7,3271.5 11999.5,3251.5 11999,3231.5C 11975.4,3263.56 11943.9,3283.39 11904.5,3291C 11867.6,3297.91 11830.6,3298.25 11793.5,3292C 11752.3,3284.18 11718.8,3264.02 11693,3231.5C 11670.5,3195.32 11665.2,3156.65 11677,3115.5C 11689.5,3077.67 11714.3,3051.51 11751.5,3037C 11775.3,3027.84 11800,3022.5 11825.5,3021C 11882.2,3019.58 11938.8,3019.08 11995.5,3019.5C 11998,2933.05 11956,2890.05 11869.5,2890.5C 11825.4,2890.69 11784.1,2901.53 11745.5,2923C 11737.1,2928.18 11729.1,2933.84 11721.5,2940C 11719.9,2940.09 11718.7,2939.26 11718,2937.5C 11706.8,2917.17 11695.7,2896.83 11684.5,2876.5C 11704.6,2860.1 11726.9,2847.27 11751.5,2838C 11785.9,2825.42 11821.2,2817.92 11857.5,2815.5 Z M 11855.5,3081.5 C 11902.2,3081.5 11948.8,3081.5 11995.5,3081.5C 12008,3145.73 11984.6,3191.23 11925.5,3218C 11885.2,3233.32 11844.5,3234.32 11803.5,3221C 11766.4,3204.37 11751.3,3175.87 11758,3135.5C 11766.6,3109.21 11784.5,3093.05 11811.5,3087C 11826.2,3084.09 11840.9,3082.26 11855.5,3081.5 Z"/></g>
<g><path style="opacity:0.987" fill="#000000" d="M 14125.5,2815.5 C 14190.4,2810.77 14248.1,2828.6 14298.5,2869C 14351.5,2919.56 14377.8,2981.72 14377.5,3055.5C 14377,3065.18 14376.3,3074.85 14375.5,3084.5C 14248.2,3084.5 14120.8,3084.5 13993.5,3084.5C 14002.1,3144.94 14034.8,3186.44 14091.5,3209C 14139.2,3225.64 14186.8,3225.64 14234.5,3209C 14259.6,3199.13 14281.2,3184.3 14299.5,3164.5C 14315.2,3182.33 14330.7,3200.33 14346,3218.5C 14346.7,3219.5 14346.7,3220.5 14346,3221.5C 14309.9,3261.14 14265.1,3284.98 14211.5,3293C 14152.1,3302.57 14094.7,3295.57 14039.5,3272C 13952,3227.08 13908,3155.08 13907.5,3056C 13906.3,2979.05 13934.7,2915.72 13992.5,2866C 14031.8,2835.86 14076.1,2819.02 14125.5,2815.5 Z M 14127.5,2888.5 C 14178.8,2883.93 14222.3,2899.93 14258,2936.5C 14279.2,2961.22 14291.4,2989.88 14294.5,3022.5C 14194.2,3022.5 14093.8,3022.5 13993.5,3022.5C 14001.7,2957.15 14037,2914.32 14099.5,2894C 14108.9,2891.64 14118.2,2889.81 14127.5,2888.5 Z"/></g>
<g><path style="opacity:0.988" fill="#000000" d="M 14727.5,2815.5 C 14734.5,2815.5 14741.5,2815.5 14748.5,2815.5C 14748.5,2843.17 14748.5,2870.83 14748.5,2898.5C 14714.1,2895.17 14681.5,2901.01 14650.5,2916C 14614.3,2937.27 14592.4,2968.77 14585,3010.5C 14582.7,3023.06 14581.3,3035.73 14581,3048.5C 14580.5,3129.5 14580.3,3210.5 14580.5,3291.5C 14551.8,3291.5 14523.2,3291.5 14494.5,3291.5C 14494.5,3134.17 14494.5,2976.83 14494.5,2819.5C 14522.2,2819.5 14549.8,2819.5 14577.5,2819.5C 14577.3,2845.17 14577.5,2870.84 14578,2896.5C 14596.4,2865.89 14622.2,2844.06 14655.5,2831C 14678.9,2822.42 14702.9,2817.25 14727.5,2815.5 Z"/></g>
<g><path style="opacity:0.987" fill="#000000" d="M 15023.5,2815.5 C 15081.6,2811.43 15134.6,2825.6 15182.5,2858C 15238,2902.28 15268.5,2960.11 15274,3031.5C 15274.3,3039.84 15274.8,3048.18 15275.5,3056.5C 15274.8,3065.83 15274.1,3075.17 15273.5,3084.5C 15146.2,3084.5 15018.8,3084.5 14891.5,3084.5C 14900.1,3144.93 14932.8,3186.43 14989.5,3209C 15037.2,3225.64 15084.8,3225.64 15132.5,3209C 15157.6,3199.12 15179.3,3184.29 15197.5,3164.5C 15213.2,3182.35 15228.7,3200.35 15244,3218.5C 15244.7,3219.5 15244.7,3220.5 15244,3221.5C 15209,3259.43 15165.8,3282.93 15114.5,3292C 15054.3,3302.71 14995.9,3296.37 14939.5,3273C 14862.6,3235.72 14818.4,3174.55 14807,3089.5C 14800.1,3033.08 14809.7,2979.74 14836,2929.5C 14879.2,2860.3 14941.7,2822.3 15023.5,2815.5 Z M 15025.5,2888.5 C 15079.9,2883.03 15125.1,2901.03 15161,2942.5C 15179.5,2965.92 15190,2992.59 15192.5,3022.5C 15091.8,3022.67 14991.2,3022.5 14890.5,3022C 14903.3,2944.7 14948.3,2900.2 15025.5,2888.5 Z"/></g>
<g><path style="opacity:0.989" fill="#000000" d="M 15625.5,2815.5 C 15671.1,2812.1 15714.1,2820.93 15754.5,2842C 15798.6,2869.5 15825.4,2909 15835,2960.5C 15837.7,2975.05 15839.4,2989.71 15840,3004.5C 15840.5,3100.17 15840.7,3195.83 15840.5,3291.5C 15811.8,3291.5 15783.2,3291.5 15754.5,3291.5C 15754.7,3201.5 15754.5,3111.5 15754,3021.5C 15754.2,2990.03 15745.5,2961.37 15728,2935.5C 15707.6,2911.05 15681.4,2897.22 15649.5,2894C 15610.8,2889.06 15574.5,2896.06 15540.5,2915C 15507.3,2936.94 15487.8,2967.78 15482,3007.5C 15480.4,3017.11 15479.4,3026.77 15479,3036.5C 15478.5,3121.5 15478.3,3206.5 15478.5,3291.5C 15449.8,3291.5 15421.2,3291.5 15392.5,3291.5C 15392.5,3134.17 15392.5,2976.83 15392.5,2819.5C 15420.2,2819.5 15447.8,2819.5 15475.5,2819.5C 15475.3,2842.5 15475.5,2865.5 15476,2888.5C 15505,2852.9 15542.2,2830.4 15587.5,2821C 15600.2,2818.66 15612.9,2816.83 15625.5,2815.5 Z"/></g>
<g><path style="opacity:0.99" fill="#000000" d="M 17683.5,2815.5 C 17728.3,2812.1 17770.3,2821.27 17809.5,2843C 17833.4,2857.07 17852.1,2876.24 17865.5,2900.5C 17901.3,2853.74 17948.6,2826.24 18007.5,2818C 18055.8,2810.66 18102.1,2816.99 18146.5,2837C 18187.6,2859.63 18215.1,2893.47 18229,2938.5C 18234.4,2956.8 18237.7,2975.46 18239,2994.5C 18239.5,3093.5 18239.7,3192.5 18239.5,3291.5C 18210.8,3291.5 18182.2,3291.5 18153.5,3291.5C 18153.7,3197.83 18153.5,3104.17 18153,3010.5C 18151.6,2980.91 18142.2,2954.24 18125,2930.5C 18100,2904.1 18069.2,2891.43 18032.5,2892.5C 17989.2,2891.57 17953.1,2906.9 17924,2938.5C 17903,2966.87 17892.3,2998.87 17892,3034.5C 17891.5,3120.17 17891.3,3205.83 17891.5,3291.5C 17862.8,3291.5 17834.2,3291.5 17805.5,3291.5C 17805.7,3198.83 17805.5,3106.17 17805,3013.5C 17797.8,2925.65 17750.3,2885.82 17662.5,2894C 17599.9,2903.24 17561.8,2938.74 17548,3000.5C 17546,3010.41 17544.7,3020.41 17544,3030.5C 17543.5,3117.5 17543.3,3204.5 17543.5,3291.5C 17514.8,3291.5 17486.2,3291.5 17457.5,3291.5C 17457.5,3134.17 17457.5,2976.83 17457.5,2819.5C 17484.8,2819.5 17512.2,2819.5 17539.5,2819.5C 17539.3,2842.84 17539.5,2866.17 17540,2889.5C 17564.1,2856.79 17595.9,2834.95 17635.5,2824C 17651.4,2819.8 17667.4,2816.97 17683.5,2815.5 Z"/></g>
<g><path style="opacity:0.987" fill="#000000" d="M 18570.5,2815.5 C 18634.9,2810.81 18692.2,2828.31 18742.5,2868C 18795.8,2918.45 18822.5,2980.62 18822.5,3054.5C 18822.1,3064.53 18821.5,3074.53 18820.5,3084.5C 18693.2,3084.5 18565.8,3084.5 18438.5,3084.5C 18447.6,3146.1 18481.3,3187.94 18539.5,3210C 18594.2,3228.05 18647.6,3224.72 18699.5,3200C 18716.4,3190.58 18731.4,3178.75 18744.5,3164.5C 18760.2,3182.33 18775.7,3200.33 18791,3218.5C 18791.7,3219.5 18791.7,3220.5 18791,3221.5C 18754.9,3261.15 18710.1,3284.98 18656.5,3293C 18597.1,3302.57 18539.7,3295.57 18484.5,3272C 18396.9,3226.96 18352.9,3154.8 18352.5,3055.5C 18351.5,2968.61 18386.5,2900.77 18457.5,2852C 18492.3,2830.68 18530,2818.51 18570.5,2815.5 Z M 18572.5,2888.5 C 18618.3,2884.04 18658.6,2896.54 18693.5,2926C 18720.5,2952.48 18735.8,2984.65 18739.5,3022.5C 18639.2,3022.5 18538.8,3022.5 18438.5,3022.5C 18450.2,2944.75 18494.9,2900.09 18572.5,2888.5 Z"/></g>
<g><path style="opacity:0.988" fill="#000000" d="M 19172.5,2815.5 C 19212.8,2812.61 19251.5,2819.11 19288.5,2835C 19336.7,2859.26 19367.2,2897.76 19380,2950.5C 19383.7,2966.97 19386.1,2983.64 19387,3000.5C 19387.5,3097.5 19387.7,3194.5 19387.5,3291.5C 19358.8,3291.5 19330.2,3291.5 19301.5,3291.5C 19301.7,3199.5 19301.5,3107.5 19301,3015.5C 19296.1,2936.3 19254.1,2895.3 19175,2892.5C 19136.2,2891.66 19101.7,2903.16 19071.5,2927C 19047.7,2949.41 19033.5,2976.91 19029,3009.5C 19027.2,3021.76 19026.2,3034.1 19026,3046.5C 19025.5,3128.17 19025.3,3209.83 19025.5,3291.5C 18996.8,3291.5 18968.2,3291.5 18939.5,3291.5C 18939.5,3134.17 18939.5,2976.83 18939.5,2819.5C 18967.2,2819.5 18994.8,2819.5 19022.5,2819.5C 19022.3,2842.84 19022.5,2866.17 19023,2889.5C 19050.5,2854.12 19086.3,2831.62 19130.5,2822C 19144.5,2819.02 19158.5,2816.86 19172.5,2815.5 Z"/></g>
<g><path style="opacity:0.987" fill="#000000" d="M 19674.5,2815.5 C 19730.2,2813.28 19784.2,2821.78 19836.5,2841C 19848.1,2845.48 19858.8,2851.48 19868.5,2859C 19856.6,2881.72 19844.2,2904.22 19831.5,2926.5C 19797.4,2903.84 19759.7,2891.67 19718.5,2890C 19691.5,2887.86 19664.8,2889.86 19638.5,2896C 19616.4,2901.77 19599.9,2914.61 19589,2934.5C 19582.8,2952.23 19584.8,2968.9 19595,2984.5C 19603.7,2993.12 19613.9,2999.62 19625.5,3004C 19646.1,3011.06 19667.1,3016.39 19688.5,3020C 19728.8,3025.05 19768.1,3034.05 19806.5,3047C 19866.4,3071.03 19891.6,3115.2 19882,3179.5C 19875.5,3212.74 19858.3,3238.91 19830.5,3258C 19797.1,3279.69 19760.4,3292.02 19720.5,3295C 19652.5,3301.89 19587.2,3291.89 19524.5,3265C 19514.8,3260.51 19505.5,3255.51 19496.5,3250C 19492.2,3247.68 19488.5,3244.68 19485.5,3241C 19496.6,3217.93 19508.6,3195.43 19521.5,3173.5C 19585.9,3213.94 19655.9,3229.11 19731.5,3219C 19754,3216.51 19772.8,3207.01 19788,3190.5C 19807.2,3153.79 19797.7,3127.62 19759.5,3112C 19750.3,3108.71 19741,3106.04 19731.5,3104C 19690.9,3097.52 19650.6,3089.85 19610.5,3081C 19586.6,3074.86 19564.2,3065.2 19543.5,3052C 19518.1,3033.31 19503.9,3008.14 19501,2976.5C 19495.9,2909.92 19523.7,2863.08 19584.5,2836C 19613.5,2824.11 19643.5,2817.27 19674.5,2815.5 Z"/></g>
<g><path style="opacity:0.988" fill="#000000" d="M 20419.5,2815.5 C 20491.9,2810.66 20555.5,2831.49 20610.5,2878C 20664.7,2931.29 20689.2,2996.12 20684,3072.5C 20677.9,3158.87 20637.8,3223.7 20563.5,3267C 20517.4,3290.96 20468.4,3300.63 20416.5,3296C 20322.3,3287.03 20254.3,3240.36 20212.5,3156C 20212.8,3155.67 20213.2,3155.33 20213.5,3155C 20209.2,3146.27 20205.6,3137.27 20202.5,3128C 20201.7,3122.03 20200,3116.03 20197.5,3110C 20197.5,3107.67 20197.5,3105.33 20197.5,3103C 20196.6,3099.63 20195.6,3096.3 20194.5,3093C 20194.4,3073.26 20194.6,3053.09 20195,3032.5C 20204.1,2942.66 20249,2877.82 20329.5,2838C 20358.4,2825.45 20388.4,2817.95 20419.5,2815.5 Z M 20433.5,2890.5 C 20494.1,2889.19 20540.9,2913.52 20574,2963.5C 20590.3,2992.1 20598.2,3022.94 20597.5,3056C 20598.1,3097.53 20585.9,3134.69 20561,3167.5C 20518.3,3212.9 20466.1,3229.73 20404.5,3218C 20351.1,3205.6 20313.9,3174.1 20293,3123.5C 20281.3,3089.96 20278.3,3055.63 20284,3020.5C 20294.7,2966.83 20324.5,2928 20373.5,2904C 20392.9,2896.1 20412.9,2891.6 20433.5,2890.5 Z"/></g>
<g><path style="opacity:0.988" fill="#000000" d="M 21033.5,2815.5 C 21079.4,2811.99 21122.8,2820.82 21163.5,2842C 21206,2868.85 21232.5,2907.02 21243,2956.5C 21246.5,2973.32 21248.5,2990.32 21249,3007.5C 21249.5,3102.17 21249.7,3196.83 21249.5,3291.5C 21220.8,3291.5 21192.2,3291.5 21163.5,3291.5C 21163.7,3202.5 21163.5,3113.5 21163,3024.5C 21163.4,2993.37 21155.4,2964.7 21139,2938.5C 21118.8,2912.12 21091.9,2897.29 21058.5,2894C 21017.6,2888.71 20979.6,2896.71 20944.5,2918C 20916,2938.72 20898.5,2966.55 20892,3001.5C 20889.9,3012.41 20888.6,3023.41 20888,3034.5C 20887.5,3120.17 20887.3,3205.83 20887.5,3291.5C 20858.8,3291.5 20830.2,3291.5 20801.5,3291.5C 20801.5,3134.17 20801.5,2976.83 20801.5,2819.5C 20829.2,2819.5 20856.8,2819.5 20884.5,2819.5C 20884.3,2842.5 20884.5,2865.5 20885,2888.5C 20914,2852.9 20951.2,2830.4 20996.5,2821C 21008.9,2818.61 21021.2,2816.78 21033.5,2815.5 Z"/></g>
<g><path style="opacity:0.986" fill="#000000" d="M 6131.5,2819.5 C 6161.41,2819.17 6191.24,2819.5 6221,2820.5C 6274.67,2945.83 6328.33,3071.17 6382,3196.5C 6436.56,3071.05 6491.39,2945.72 6546.5,2820.5C 6574.83,2819.33 6603.16,2819.17 6631.5,2820C 6562.15,2976.9 6493.48,3134.06 6425.5,3291.5C 6395.83,3291.83 6366.16,3291.5 6336.5,3290.5C 6267.57,3133.69 6199.24,2976.69 6131.5,2819.5 Z"/></g>
<g><path style="opacity:0.986" fill="#000000" d="M 7535.5,2819.5 C 7565.5,2819.5 7595.5,2819.5 7625.5,2819.5C 7679.71,2944.92 7734.21,3070.25 7789,3195.5C 7842.81,3070.42 7896.81,2945.42 7951,2820.5C 7979.1,2819.17 8007.27,2819.17 8035.5,2820.5C 7956.67,2999.5 7877.83,3178.5 7799,3357.5C 7752.9,3455.12 7677.73,3488.62 7573.5,3458C 7552.33,3451.09 7533.66,3440.09 7517.5,3425C 7529.46,3404.25 7541.29,3383.41 7553,3362.5C 7554.05,3361.48 7555.22,3361.32 7556.5,3362C 7589.59,3392.52 7627.92,3401.86 7671.5,3390C 7684.97,3384.54 7696.13,3376.04 7705,3364.5C 7710.5,3356.84 7715.5,3348.84 7720,3340.5C 7727.7,3323.59 7735.54,3306.76 7743.5,3290C 7673.68,3133.37 7604.35,2976.53 7535.5,2819.5 Z"/></g>
<g><path style="opacity:0.989" fill="#000000" d="M 9316.5,2819.5 C 9345.17,2819.5 9373.83,2819.5 9402.5,2819.5C 9402.5,2976.83 9402.5,3134.17 9402.5,3291.5C 9373.83,3291.5 9345.17,3291.5 9316.5,3291.5C 9316.5,3134.17 9316.5,2976.83 9316.5,2819.5 Z"/></g>
<g><path style="opacity:0.99" fill="#000000" d="M 10775.5,2819.5 C 10804.2,2819.5 10832.8,2819.5 10861.5,2819.5C 10861.5,2976.83 10861.5,3134.17 10861.5,3291.5C 10832.8,3291.5 10804.2,3291.5 10775.5,3291.5C 10775.5,3134.17 10775.5,2976.83 10775.5,2819.5 Z"/></g>
<g><path style="opacity:0.989" fill="#000000" d="M 13082.5,2819.5 C 13111.2,2819.5 13139.8,2819.5 13168.5,2819.5C 13168.5,2976.83 13168.5,3134.17 13168.5,3291.5C 13139.8,3291.5 13111.2,3291.5 13082.5,3291.5C 13082.5,3134.17 13082.5,2976.83 13082.5,2819.5 Z"/></g>
<g><path style="opacity:0.989" fill="#000000" d="M 17209.5,2819.5 C 17238.2,2819.5 17266.8,2819.5 17295.5,2819.5C 17295.5,2976.83 17295.5,3134.17 17295.5,3291.5C 17266.8,3291.5 17238.2,3291.5 17209.5,3291.5C 17209.5,3134.17 17209.5,2976.83 17209.5,2819.5 Z"/></g>
<g><path style="opacity:0.989" fill="#000000" d="M 19989.5,2819.5 C 20018.2,2819.5 20046.8,2819.5 20075.5,2819.5C 20075.5,2976.83 20075.5,3134.17 20075.5,3291.5C 20046.8,3291.5 20018.2,3291.5 19989.5,3291.5C 19989.5,3134.17 19989.5,2976.83 19989.5,2819.5 Z"/></g>
<g><path style="opacity:0.984" fill="#000000" d="M 21416.5,3174.5 C 21444.6,3171.8 21465.8,3182.47 21480,3206.5C 21490.4,3231.94 21487.4,3255.6 21471,3277.5C 21452.2,3296.27 21430,3301.44 21404.5,3293C 21373.1,3277.88 21360.9,3253.05 21368,3218.5C 21375.8,3194.51 21392,3179.84 21416.5,3174.5 Z"/></g>
</svg>
